<svg width="100" height="100" viewBox="0 0 100 100" fill="none" xmlns="http://www.w3.org/2000/svg">
<path d="M67.6694 72.9947L53.1808 73.0277L36.8629 55.5806L68.2835 55.4204C69.7479 55.413 71.1497 54.8261 72.1826 53.788C73.2154 52.7499 73.7952 51.3451 73.7952 49.8808C73.7952 49.1512 73.6511 48.4288 73.3711 47.7551C73.0911 47.0814 72.6809 46.4696 72.1638 45.9549C71.6468 45.4402 71.0331 45.0327 70.3582 44.7557C69.6832 44.4788 68.9602 44.3379 68.2306 44.3412L27.5848 44.5233L9.375 26.9727L67.62 26.9795C73.7216 26.9802 79.573 29.4045 83.8872 33.7192C88.2014 38.0339 90.6251 43.8857 90.625 49.9872C90.625 56.0802 88.2081 61.9244 83.9046 66.2377C79.6011 70.5509 73.7623 72.981 67.6694 72.9947Z" stroke="black" stroke-width="2.08333" stroke-linecap="round" stroke-linejoin="round"/>
</svg>
