<svg width="85" height="50" viewBox="0 0 85 50" fill="none" xmlns="http://www.w3.org/2000/svg">
<path d="M60.2944 48.0221L45.8058 48.055L29.4879 30.6079L60.9085 30.4477C62.3729 30.4403 63.7747 29.8534 64.8076 28.8154C65.8404 27.7773 66.4202 26.3725 66.4202 24.9081C66.4202 24.1786 66.2761 23.4562 65.9961 22.7825C65.7161 22.1087 65.3059 21.497 64.7888 20.9822C64.2718 20.4675 63.6581 20.06 62.9832 19.7831C62.3082 19.5062 61.5852 19.3653 60.8556 19.3685L20.2098 19.5506L2 2L60.245 2.00687C66.3466 2.00754 72.198 4.43186 76.5122 8.74657C80.8264 13.0613 83.2501 18.913 83.25 25.0146C83.25 31.1076 80.8331 36.9518 76.5296 41.265C72.2261 45.5783 66.3873 48.0083 60.2944 48.0221Z" stroke="white" stroke-width="2.08333" stroke-linecap="round" stroke-linejoin="round"/>
</svg>
