<svg version="1.1" id="Layer_1" xmlns="http://www.w3.org/2000/svg" xmlns:xlink="http://www.w3.org/1999/xlink" x="0px" y="0px"
	 width="100%" viewBox="0 0 225 225" enable-background="new 0 0 225 225" xml:space="preserve">
<path fill="#FFFFFE" opacity="1.000000" stroke="none" 
	d="
M1.000000,83.000000 
	C1.000000,55.333340 1.000000,28.166676 1.000000,1.000011 
	C75.999977,1.000007 150.999954,1.000007 225.999954,1.000004 
	C225.999969,75.999969 225.999969,150.999939 225.999985,225.999939 
	C151.000046,225.999954 76.000092,225.999954 1.000068,225.999969 
	C1.000000,178.500000 1.000000,131.000000 1.000000,83.000000 
M215.027206,124.446060 
	C214.848709,116.012047 215.479004,107.466019 214.329483,99.166496 
	C211.633347,79.700485 202.400314,62.584625 192.919022,45.773724 
	C190.138489,40.843651 185.930145,36.287460 181.398499,32.848148 
	C156.603683,14.030012 128.678970,6.434687 97.856544,12.010244 
	C63.216801,18.276327 36.607265,36.264107 20.589083,68.168060 
	C9.748165,89.760284 8.661707,112.594376 14.584122,135.733841 
	C19.274431,154.059341 25.424120,172.002625 39.168789,185.748871 
	C61.968987,208.551697 89.645294,218.930649 121.978760,216.139816 
	C144.991104,214.153534 165.365356,205.712738 181.795288,189.445236 
	C199.647446,171.769608 210.473969,150.091583 215.027206,124.446060 
z"/>
<path fill="#EEB170" opacity="1.000000" stroke="none" 
	d="
M215.009262,124.887077 
	C210.473969,150.091583 199.647446,171.769608 181.795288,189.445236 
	C165.365356,205.712738 144.991104,214.153534 121.978760,216.139816 
	C89.645294,218.930649 61.968987,208.551697 39.168789,185.748871 
	C25.424120,172.002625 19.274431,154.059341 14.584122,135.733841 
	C8.661707,112.594376 9.748165,89.760284 20.589083,68.168060 
	C36.607265,36.264107 63.216801,18.276327 97.856544,12.010244 
	C128.678970,6.434687 156.603683,14.030012 181.398499,32.848148 
	C185.930145,36.287460 190.138489,40.843651 192.919022,45.773724 
	C202.400314,62.584625 211.633347,79.700485 214.329483,99.166496 
	C215.479004,107.466019 214.848709,116.012047 215.009262,124.887077 
M128.715515,21.849096 
	C118.287880,21.901606 107.645958,20.625050 97.474258,22.264986 
	C70.869888,26.554285 49.954426,40.520390 35.337330,63.274380 
	C21.023306,85.556580 17.861179,110.047249 23.192101,135.554916 
	C29.031187,163.494064 44.800377,184.102066 71.059006,196.050430 
	C88.976456,204.203369 107.845337,205.579773 127.141342,203.103577 
	C149.997650,200.170471 169.075256,189.744919 183.200089,171.836655 
	C202.591293,147.251373 210.105148,118.873314 203.811432,88.013382 
	C196.537506,52.347157 168.042526,25.153959 128.715515,21.849096 
z"/>
<path fill="#A4703B" opacity="1.000000" stroke="none" 
	d="
M129.166519,21.881269 
	C168.042526,25.153959 196.537506,52.347157 203.811432,88.013382 
	C210.105148,118.873314 202.591293,147.251373 183.200089,171.836655 
	C169.075256,189.744919 149.997650,200.170471 127.141342,203.103577 
	C107.845337,205.579773 88.976456,204.203369 71.059006,196.050430 
	C44.800377,184.102066 29.031187,163.494064 23.192101,135.554916 
	C17.861179,110.047249 21.023306,85.556580 35.337330,63.274380 
	C49.954426,40.520390 70.869888,26.554285 97.474258,22.264986 
	C107.645958,20.625050 118.287880,21.901606 129.166519,21.881269 
M183.563309,71.957344 
	C177.851440,62.657001 170.721161,54.679859 162.244232,47.739883 
	C132.100372,23.061386 86.766968,24.350473 58.422901,50.962025 
	C35.017136,72.937134 28.209064,100.384041 33.377262,131.084885 
	C36.517773,149.740570 45.787338,165.347885 61.215900,176.857697 
	C77.281815,188.842972 95.521156,193.040375 115.268326,192.050568 
	C137.061127,190.958252 156.110229,183.175201 171.972687,168.283707 
	C197.234665,144.568054 203.172760,104.590439 183.563309,71.957344 
z"/>
<path fill="#FDCC49" opacity="1.000000" stroke="none" 
	d="
M183.773132,72.255966 
	C203.172760,104.590439 197.234665,144.568054 171.972687,168.283707 
	C156.110229,183.175201 137.061127,190.958252 115.268326,192.050568 
	C95.521156,193.040375 77.281815,188.842972 61.215900,176.857697 
	C45.787338,165.347885 36.517773,149.740570 33.377262,131.084885 
	C28.209064,100.384041 35.017136,72.937134 58.422901,50.962025 
	C86.766968,24.350473 132.100372,23.061386 162.244232,47.739883 
	C170.721161,54.679859 177.851440,62.657001 183.773132,72.255966 
M181.046478,134.425369 
	C180.764084,133.598557 180.481689,132.771744 180.055099,131.259750 
	C175.508713,121.163628 156.304153,121.930832 153.048859,134.507996 
	C153.071350,135.998032 153.093842,137.488068 152.953003,139.802017 
	C152.561417,144.176224 153.778641,147.741943 158.508987,149.903015 
	C158.684311,149.938171 158.859634,149.973328 159.074249,150.746277 
	C163.523087,155.175446 168.625565,154.317291 174.239502,153.268341 
	C179.767593,154.346573 183.981842,151.684082 183.350586,147.244354 
	C181.969284,147.786880 180.640259,148.308868 179.513611,148.074203 
	C180.691299,144.721741 183.699295,141.633530 181.002014,137.069351 
	C180.976425,136.415894 180.950836,135.762451 181.046478,134.425369 
M187.007584,95.998672 
	C186.463104,94.356300 185.918640,92.713921 185.212738,90.335716 
	C182.213531,84.406754 179.049194,83.008499 171.344040,84.207451 
	C167.706345,84.773491 162.719101,90.525719 161.980728,95.006989 
	C161.003326,100.938942 163.686661,107.324562 168.364197,109.868225 
	C169.535614,110.545074 170.707031,111.221916 172.554245,112.144836 
	C178.970947,115.155861 184.187424,112.446022 188.646423,104.503227 
	C189.045700,105.403549 189.332169,106.379601 189.872787,107.185051 
	C190.549042,108.192528 191.434219,109.059776 192.229187,109.987564 
	C192.496353,108.680923 193.394958,107.046013 192.917053,106.126724 
	C191.209457,102.842072 189.034760,99.800247 187.007584,95.998672 
M134.105057,73.442421 
	C134.701645,73.962662 135.298233,74.482903 136.203201,75.680702 
	C141.734085,78.778816 147.136276,78.442368 152.170456,74.355011 
	C157.022781,70.415283 160.542725,65.807289 159.079971,58.846241 
	C160.529129,59.010315 161.976379,59.278408 163.428040,59.304771 
	C164.541962,59.325008 165.661392,59.040428 166.778381,58.891403 
	C165.951675,57.903584 165.283600,56.312832 164.267349,56.045452 
	C161.634033,55.352623 158.847366,55.242664 155.870651,54.259861 
	C153.566910,52.829468 151.263153,51.399071 148.988739,50.004295 
	C148.988739,50.004295 149.025833,50.031616 148.953552,49.269413 
	C141.963028,44.751240 133.231323,47.873619 130.033157,56.707542 
	C130.007523,57.396626 129.981888,58.085712 129.170593,58.982040 
	C126.425728,65.046783 128.635162,71.651558 134.105057,73.442421 
M62.753616,96.043633 
	C63.411221,96.038765 64.068825,96.033897 65.169540,96.649712 
	C71.481865,96.629761 75.699409,93.457344 75.880501,88.610313 
	C76.030182,88.449623 76.197548,88.311172 77.232620,88.019325 
	C77.862206,86.596191 78.972145,85.195496 79.039833,83.746124 
	C79.366211,76.756989 74.440231,70.022682 67.713058,67.842705 
	C61.249607,65.748199 54.596889,67.896461 51.101738,73.454689 
	C47.309162,79.485886 48.310707,85.701569 53.146954,92.958160 
	C55.771461,95.029671 58.098991,97.950203 62.753616,96.043633 
M90.735474,180.201675 
	C91.330414,181.434967 91.925362,182.668259 92.520309,183.901566 
	C94.207832,181.979340 94.561356,180.295044 95.018318,178.639282 
	C95.515373,176.838287 96.108536,175.063797 97.331642,172.808136 
	C100.196999,166.917450 99.369072,160.500732 95.148674,155.889236 
	C91.105621,151.471527 82.771629,150.452896 78.466904,153.968460 
	C78.067566,154.116135 77.668228,154.263794 76.624489,154.509796 
	C74.428658,156.583176 71.245148,158.265610 70.238205,160.809586 
	C67.994003,166.479385 68.539742,172.317841 73.388519,176.797012 
	C78.370842,181.399567 84.136375,182.289917 90.735474,180.201675 
M54.089077,138.977463 
	C55.175419,138.741302 56.261761,138.505127 58.092571,138.273972 
	C62.409748,138.958145 65.107430,137.286133 66.263336,132.333344 
	C66.847069,131.020309 67.430801,129.707260 68.727509,128.060776 
	C71.187004,122.657730 68.539650,115.124451 62.890923,112.672516 
	C56.542282,109.916771 46.099110,110.424744 40.282833,119.245834 
	C39.953880,116.564003 39.624924,113.882164 39.139961,109.928421 
	C35.048203,116.071289 35.491398,119.763512 39.923130,126.790688 
	C41.613380,130.038803 42.800213,133.732132 45.153889,136.393524 
	C47.022034,138.505920 49.705479,141.522720 54.089077,138.977463 
M93.523254,120.002541 
	C87.689606,123.537155 84.966629,133.163681 88.429245,138.687881 
	C89.077370,139.721909 90.670906,140.163330 92.026573,141.535828 
	C93.011368,142.380051 93.996155,143.224258 95.145798,144.800308 
	C100.204727,147.908005 104.365005,147.970932 107.423859,144.992035 
	C107.423859,144.992035 107.670486,144.994171 108.461884,144.992233 
	C110.022736,144.213104 112.193130,143.846497 113.045113,142.587616 
	C118.407486,134.664185 118.446159,125.481956 110.119415,119.169907 
	C105.648399,115.780670 99.417274,115.932503 95.078064,119.358604 
	C94.809486,119.555748 94.540916,119.752899 93.523254,120.002541 
M126.217178,177.621933 
	C131.922760,180.994202 138.946533,180.463974 143.237274,176.337082 
	C147.444321,172.290680 148.790390,163.229233 146.003311,157.716782 
	C142.957108,151.691818 136.288132,148.072296 130.423477,149.260956 
	C123.468109,150.670700 120.089981,155.186691 120.541611,162.334793 
	C120.572998,162.831497 119.931717,163.360123 119.631668,163.889999 
	C117.089821,168.378906 117.652946,170.713242 122.531616,174.761978 
	C123.715797,175.466614 124.899979,176.171249 126.217178,177.621933 
M113.024734,41.152489 
	C113.747833,39.704983 114.723213,38.320454 115.105797,36.787941 
	C115.363091,35.757309 114.781876,34.517353 114.575806,33.371048 
	C113.706261,34.048058 112.768723,34.655285 111.984329,35.419666 
	C110.996063,36.382710 110.132881,37.474125 108.474281,38.086281 
	C104.852516,37.469955 101.106323,35.950085 97.635262,36.428085 
	C90.713570,37.381256 86.012383,43.660416 85.884583,50.576702 
	C85.754562,57.613571 90.051010,63.369640 96.951202,65.402969 
	C102.931610,67.165268 110.418938,64.230194 113.631004,58.687794 
	C116.971062,52.924541 116.545822,47.255436 113.024734,41.152489 
M105.801575,104.811234 
	C117.162781,99.536621 119.004425,90.383575 111.017204,79.594925 
	C107.802101,75.252174 103.336975,74.496696 98.613930,75.239845 
	C93.612656,76.026772 89.229095,78.443062 88.038536,83.829735 
	C86.870056,89.116478 84.862610,95.438667 90.065926,99.173264 
	C94.268265,102.189415 99.971390,103.114555 105.801575,104.811234 
M127.680023,96.251579 
	C127.045547,97.220085 126.316597,98.140213 125.791817,99.164894 
	C122.180870,106.215675 123.336609,112.364471 129.184891,117.486900 
	C134.768417,122.377411 141.702805,122.821617 147.405594,118.654068 
	C153.032883,114.541702 155.524750,106.277763 153.044189,99.954430 
	C149.170334,90.079407 137.943054,88.160210 127.680023,96.251579 
M140.942001,84.529228 
	C139.419983,84.997787 137.897964,85.466347 136.375946,85.934914 
	C137.824829,86.636528 139.260941,87.885056 140.725418,87.919273 
	C143.311981,87.979713 146.013062,87.609848 148.482101,86.834099 
	C150.508194,86.197517 152.266983,84.710106 154.144272,83.599823 
	C153.877045,83.050644 153.609818,82.501465 153.342590,81.952286 
	C149.463974,82.854797 145.585373,83.757309 140.942001,84.529228 
M91.742195,110.266281 
	C85.315331,109.711655 78.043640,116.178642 78.713715,122.491364 
	C79.802101,121.786324 80.734932,121.306114 81.521400,120.650368 
	C84.387688,118.260445 87.233231,115.843552 90.022682,113.364899 
	C90.797775,112.676163 91.351990,111.738861 91.742195,110.266281 
M60.879246,106.177361 
	C63.119431,106.798096 65.359612,107.418823 67.599792,108.039551 
	C66.056839,102.215195 61.273254,103.000389 57.529560,102.421387 
	C55.432484,102.097054 53.060295,103.551544 50.812065,104.204536 
	C50.966919,104.824020 51.121769,105.443497 51.276623,106.062981 
	C54.187984,106.062981 57.099342,106.062981 60.879246,106.177361 
M65.452515,59.870960 
	C65.026070,58.924751 64.599632,57.978542 64.173195,57.032326 
	C60.352509,59.031700 56.514694,61.000546 52.755692,63.109848 
	C52.540756,63.230457 52.838818,65.058678 53.124004,65.125298 
	C53.913963,65.309853 54.913177,65.175766 55.669998,64.824036 
	C58.753777,63.390842 61.777805,61.829094 65.452515,59.870960 
M115.808685,148.237915 
	C114.748978,149.819031 113.689270,151.400146 112.081528,153.798965 
	C119.155930,152.532852 123.475037,143.712402 120.129417,138.476440 
	C118.697189,141.770111 117.435051,144.672638 115.808685,148.237915 
M119.925201,107.679771 
	C120.303673,105.609680 120.682144,103.539589 121.304703,100.134476 
	C115.969612,103.590622 115.617439,107.580879 116.280624,111.601044 
	C116.533867,113.136185 118.315544,114.419182 119.400681,115.817085 
	C119.591141,114.369225 119.838219,112.925797 119.952255,111.471939 
	C120.028824,110.495781 119.916924,109.504837 119.925201,107.679771 
M155.797318,120.712410 
	C159.634338,119.690315 163.177856,112.856209 161.531219,109.482391 
	C161.226028,108.857117 160.389816,108.148491 159.771729,108.122627 
	C159.240219,108.100388 158.349457,108.902107 158.170059,109.504143 
	C157.118393,113.033302 156.228973,116.610817 155.797318,120.712410 
M145.408478,39.702904 
	C141.004913,38.655930 136.661484,37.883617 133.269211,41.454414 
	C133.320908,41.984772 133.372604,42.515133 133.424301,43.045490 
	C137.739166,43.045490 142.054047,43.045490 146.368912,43.045490 
	C146.300873,42.030266 146.232819,41.015041 145.408478,39.702904 
M118.228523,48.930935 
	C118.773491,55.792629 121.801231,60.458408 126.336563,60.513653 
	C124.348503,56.369823 122.492722,52.423401 120.514961,48.539089 
	C120.368523,48.251480 119.344841,48.410545 118.228523,48.930935 
M109.191772,160.550659 
	C107.261436,159.031326 105.384323,157.435547 103.371635,156.034515 
	C102.676170,155.550385 101.643570,155.550552 100.764961,155.329498 
	C100.710854,156.214920 100.268440,157.595032 100.665009,157.906311 
	C103.448990,160.091675 106.355103,162.138519 109.360992,164.006195 
	C109.826271,164.295288 111.002083,163.440842 111.849304,163.115234 
	C111.200287,162.353577 110.551262,161.591919 109.191772,160.550659 
M117.458366,179.843628 
	C116.146629,177.159714 114.834885,174.475800 112.962173,170.644089 
	C110.829857,176.467316 112.903679,179.763443 115.407837,182.772827 
	C116.165558,183.683441 117.776245,183.884308 118.996239,184.410263 
	C118.646278,183.069611 118.296318,181.728943 117.458366,179.843628 
M82.044273,102.924057 
	C81.578857,101.106140 81.113434,99.288231 80.648010,97.470314 
	C79.952957,97.705589 78.663338,97.924011 78.656113,98.178780 
	C78.593628,100.383080 78.460976,102.666969 78.973000,104.775696 
	C79.285522,106.062813 80.592514,107.196625 81.661560,108.170097 
	C82.112465,108.580696 83.610939,108.683403 83.748032,108.435844 
	C84.136780,107.733887 84.361115,106.675949 84.105316,105.950256 
	C83.798317,105.079308 82.928825,104.406616 82.044273,102.924057 
M82.204887,47.903324 
	C82.365227,46.398193 82.525566,44.893063 82.798904,42.327183 
	C77.374573,47.227501 76.476112,54.006390 80.366669,57.358017 
	C80.956276,54.285358 81.492325,51.491772 82.204887,47.903324 
M186.158340,124.511574 
	C188.967453,125.467834 190.045364,123.886780 188.337219,122.048828 
	C186.324020,119.882614 183.302460,118.601715 180.589340,117.183235 
	C180.070694,116.912079 178.954361,117.784111 178.113785,118.128723 
	C178.646057,118.996056 178.981964,120.153587 179.749634,120.673050 
	C181.605774,121.929047 183.663406,122.887299 186.158340,124.511574 
M66.605743,145.103058 
	C70.626923,147.097046 73.001381,144.075821 75.390427,141.895538 
	C76.445816,140.932343 76.576172,138.955551 77.126488,137.438904 
	C76.695679,137.281189 76.264877,137.123489 75.834068,136.965775 
	C72.647537,139.465073 69.460999,141.964386 66.605743,145.103058 
M95.205078,72.695328 
	C95.597641,71.738380 96.596550,70.356926 96.276077,69.899185 
	C95.000412,68.077103 86.406044,67.888611 82.882149,70.215950 
	C87.391541,71.160049 90.903595,71.895332 95.205078,72.695328 
M45.949463,153.444702 
	C46.520878,154.627899 46.843601,156.071259 47.733196,156.921585 
	C48.634705,157.783295 50.096512,158.058838 51.312912,158.591110 
	C51.142574,157.442810 51.115440,156.248322 50.763992,155.158417 
	C50.365505,153.922668 49.736202,152.747177 49.097630,151.606873 
	C48.409916,150.378815 47.595154,149.221878 46.835831,148.033920 
	C46.479664,149.588226 46.123501,151.142548 45.949463,153.444702 
M60.645618,158.221207 
	C61.053406,161.691406 61.363377,165.178818 61.967167,168.614563 
	C62.065529,169.174255 63.427437,169.659653 64.279877,169.856445 
	C64.566177,169.922546 65.531998,168.828995 65.427826,168.530777 
	C64.181244,164.962189 62.791527,161.443604 60.645618,158.221207 
M162.401001,168.263367 
	C164.049225,166.967422 165.697433,165.671463 167.345642,164.375519 
	C166.990402,163.889954 166.635162,163.404388 166.279922,162.918823 
	C162.417099,164.291641 158.554260,165.664459 154.691437,167.037277 
	C154.763260,167.555679 154.835083,168.074097 154.906906,168.592499 
	C157.154846,168.592499 159.402771,168.592499 162.401001,168.263367 
M164.931885,72.702377 
	C162.932281,75.592278 161.956818,78.497498 164.553253,82.609596 
	C166.027191,79.222473 167.095856,76.907532 168.038010,74.542206 
	C168.508987,73.359840 168.748932,72.085449 169.093353,70.852669 
	C167.860413,71.280975 166.627487,71.709282 164.931885,72.702377 
M40.869843,92.529121 
	C42.722137,95.426598 44.676758,98.156563 49.784451,97.596870 
	C46.791092,94.024902 44.310417,91.064713 40.887306,86.979919 
	C40.716652,89.417290 40.630600,90.646309 40.869843,92.529121 
M139.425659,184.993408 
	C142.405670,183.980118 146.326645,184.879715 148.829163,179.522964 
	C143.955826,180.581802 139.910522,180.652206 136.808746,182.398499 
	C134.460068,183.720779 136.699814,184.901184 139.425659,184.993408 
M83.970222,148.183197 
	C86.573822,147.990173 89.177414,147.797134 92.730713,147.533691 
	C87.571419,143.391434 81.187683,144.144272 78.675018,148.976349 
	C80.497902,148.753372 81.818977,148.591797 83.970222,148.183197 
M127.035118,127.967522 
	C128.463135,127.174583 129.891159,126.381638 131.319168,125.588699 
	C131.066727,124.997253 130.814285,124.405800 130.561859,123.814346 
	C126.729088,124.436707 122.896324,125.059059 119.063560,125.681412 
	C119.114204,126.462990 119.164856,127.244560 119.215500,128.026138 
	C121.531700,128.026138 123.847893,128.026138 127.035118,127.967522 
M185.022934,81.405449 
	C184.516235,80.027885 184.345917,78.338905 183.425308,77.344551 
	C181.985474,75.789368 180.037964,74.704201 178.305511,73.419922 
	C178.955154,75.268898 179.534576,77.146858 180.281204,78.955811 
	C180.718018,80.014153 181.227737,81.205742 182.070969,81.877739 
	C182.670334,82.355377 183.881104,82.065826 185.022934,81.405449 
M138.827042,140.259583 
	C139.610641,140.692383 140.394257,141.125168 141.177841,141.557968 
	C141.435425,140.701935 141.905243,139.846680 141.908310,138.989731 
	C141.915634,136.938416 141.792862,134.875015 141.536194,132.839996 
	C141.431549,132.010300 140.844162,131.241486 140.476425,130.444962 
	C139.677673,131.059647 138.245193,131.626175 138.194168,132.297668 
	C138.011597,134.700745 138.297195,137.139420 138.827042,140.259583 
M123.614807,83.010818 
	C123.912186,82.013817 124.662842,80.881653 124.414108,80.047493 
	C123.868843,78.218834 122.939743,76.464294 121.918167,74.835831 
	C121.442093,74.076942 120.385986,73.681931 119.592789,73.121979 
	C119.242378,74.079521 118.329605,75.315208 118.641251,75.945305 
	C119.837593,78.364143 121.426605,80.588768 123.614807,83.010818 
M152.624695,153.783585 
	C152.624695,151.478073 152.624695,149.172562 152.624695,146.867065 
	C151.894623,146.824524 151.164536,146.781998 150.434464,146.739456 
	C149.963501,149.632950 149.439270,152.519943 149.083206,155.427505 
	C149.033951,155.829697 149.816406,156.333740 150.213821,156.790634 
	C150.912628,156.043701 151.611435,155.296768 152.624695,153.783585 
z"/>
<path fill="#D11C1F" opacity="1.000000" stroke="none" 
	d="
M112.780510,41.802006 
	C116.545822,47.255436 116.971062,52.924541 113.631004,58.687794 
	C110.418938,64.230194 102.931610,67.165268 96.951202,65.402969 
	C90.051010,63.369640 85.754562,57.613571 85.884583,50.576702 
	C86.012383,43.660416 90.713570,37.381256 97.635262,36.428085 
	C101.106323,35.950085 104.852516,37.469955 108.720886,38.598583 
	C108.879295,40.262203 108.791107,41.413525 108.702919,42.564842 
	C110.062119,42.310566 111.421310,42.056286 112.780510,41.802006 
M98.193245,55.078979 
	C97.533325,55.044788 96.677147,54.728813 96.248833,55.027145 
	C94.721207,56.091175 93.338989,57.363953 91.901733,58.557728 
	C93.136391,59.803604 94.371056,61.049484 95.605721,62.295361 
	C96.775826,60.839859 98.119492,59.483963 99.037727,57.883926 
	C99.453606,57.159264 99.024734,55.949821 99.810883,54.996948 
	C101.547859,54.193443 103.402840,53.552494 104.922356,52.449429 
	C105.226608,52.228554 104.458138,49.388908 103.829704,49.238514 
	C101.954559,48.789787 99.903214,49.077393 97.629257,49.077393 
	C98.296906,51.882515 98.670738,53.453148 98.193245,55.078979 
M91.577477,44.114479 
	C91.453880,45.851097 90.649231,48.055038 91.419838,49.178070 
	C92.048561,50.094341 94.686104,50.154388 96.180176,49.721539 
	C96.867134,49.522526 97.634384,46.438663 97.175705,46.043423 
	C95.830536,44.884319 93.888550,44.417828 91.577477,44.114479 
M108.012093,51.364502 
	C109.359764,52.200584 110.637383,53.271130 112.103943,53.709354 
	C112.474655,53.820129 114.002853,51.905228 113.990158,50.934364 
	C113.977318,49.952381 112.430779,48.061401 112.047546,48.178402 
	C110.593826,48.622234 109.339272,49.718388 108.012093,51.364502 
z"/>
<path fill="#D11C20" opacity="1.000000" stroke="none" 
	d="
M122.141663,174.336014 
	C117.652946,170.713242 117.089821,168.378906 119.631668,163.889999 
	C119.931717,163.360123 120.572998,162.831497 120.541611,162.334793 
	C120.089981,155.186691 123.468109,150.670700 130.423477,149.260956 
	C136.288132,148.072296 142.957108,151.691818 146.003311,157.716782 
	C148.790390,163.229233 147.444321,172.290680 143.237274,176.337082 
	C138.946533,180.463974 131.922760,180.994202 126.511810,177.233429 
	C128.141983,175.338486 129.889206,173.994919 130.585175,172.235504 
	C130.822189,171.636322 127.897087,168.794128 127.310684,169.047287 
	C125.544891,169.809601 124.193771,171.565155 122.740807,172.994217 
	C122.415688,173.313980 122.334923,173.882187 122.141663,174.336014 
M140.981110,171.534546 
	C139.498230,170.692215 137.918777,169.085907 136.563980,169.257141 
	C135.539764,169.386581 134.305847,171.726089 134.125916,173.199356 
	C134.019775,174.068298 136.379761,176.145340 136.614883,176.002838 
	C138.218002,175.031372 139.551315,173.614670 140.981110,171.534546 
M139.168915,154.024109 
	C137.751022,154.966690 135.803467,155.634415 135.117279,156.956711 
	C134.716568,157.728912 136.030258,160.211990 137.124741,160.708679 
	C138.226593,161.208679 140.012238,160.201843 141.498260,159.855270 
	C140.975174,158.007309 140.452103,156.159363 139.168915,154.024109 
M127.220200,164.286819 
	C127.874527,164.992905 128.505417,166.263962 129.187881,166.292267 
	C130.813889,166.359772 132.509674,165.969482 134.058197,165.425262 
	C134.304214,165.338806 134.273849,162.841782 133.781036,162.582932 
	C132.323883,161.817551 130.581268,161.395477 128.927979,161.318451 
	C128.391129,161.293442 127.785393,162.747238 127.220200,164.286819 
M129.446915,152.869904 
	C128.404556,154.134323 127.362190,155.398727 126.319817,156.663132 
	C127.774742,157.024612 129.229660,157.386093 130.684586,157.747574 
	C130.533218,156.176727 130.381851,154.605865 129.446915,152.869904 
z"/>
<path fill="#D11D20" opacity="1.000000" stroke="none" 
	d="
M105.405159,104.889267 
	C99.971390,103.114555 94.268265,102.189415 90.065926,99.173264 
	C84.862610,95.438667 86.870056,89.116478 88.038536,83.829735 
	C89.229095,78.443062 93.612656,76.026772 98.613930,75.239845 
	C103.336975,74.496696 107.802101,75.252174 111.017204,79.594925 
	C119.004425,90.383575 117.162781,99.536621 105.405159,104.889267 
M98.690300,85.862923 
	C99.886230,85.364243 101.381561,85.149048 102.195915,84.289047 
	C103.050911,83.386086 103.890450,80.943718 103.635361,80.767365 
	C102.217270,79.787064 100.388710,78.681427 98.855843,78.871384 
	C98.013397,78.975777 97.198586,81.488060 96.906471,83.016937 
	C96.735359,83.912552 97.616608,85.009239 97.335808,86.349358 
	C94.656181,85.449783 91.962875,84.495094 89.911003,88.695885 
	C91.560219,89.777489 93.172729,90.835037 94.785248,91.892578 
	C95.751755,90.374130 96.744270,88.871208 97.666168,87.326149 
	C97.892044,86.947586 97.886971,86.431213 98.690300,85.862923 
M105.106377,88.654121 
	C102.611862,90.872696 102.520645,93.295441 105.079338,95.327934 
	C106.038506,96.089844 108.622963,96.495682 109.007980,95.978386 
	C110.238937,94.324501 110.786377,92.161888 111.597694,90.195679 
	C109.602119,89.505836 107.606552,88.815994 105.106377,88.654121 
M96.512604,100.133499 
	C97.734016,98.729027 99.213821,97.447166 99.982231,95.827744 
	C100.158661,95.455925 97.998215,93.356796 96.710754,93.110382 
	C95.733788,92.923393 93.386406,94.584335 93.474113,95.129196 
	C93.752441,96.858322 94.885887,98.449806 96.512604,100.133499 
z"/>
<path fill="#D11A1E" opacity="1.000000" stroke="none" 
	d="
M127.932404,95.978271 
	C137.943054,88.160210 149.170334,90.079407 153.044189,99.954430 
	C155.524750,106.277763 153.032883,114.541702 147.405594,118.654068 
	C141.702805,122.821617 134.768417,122.377411 129.184891,117.486900 
	C123.336609,112.364471 122.180870,106.215675 125.791817,99.164894 
	C126.316597,98.140213 127.045547,97.220085 127.932404,95.978271 
M132.956390,108.304390 
	C131.914124,106.888359 130.871872,105.472321 129.829605,104.056282 
	C128.879395,104.992935 127.929184,105.929581 126.978966,106.866226 
	C128.229935,108.028542 129.405350,109.292618 130.768066,110.304398 
	C131.333862,110.724472 132.299835,110.605591 133.126266,111.564888 
	C133.111115,112.057632 132.877762,112.765427 133.116638,113.007774 
	C134.534576,114.446358 136.061905,115.777145 137.552460,117.144165 
	C138.726868,115.631142 141.101562,113.776718 140.791306,112.685974 
	C140.338226,111.093010 138.079865,109.826324 136.344330,108.866760 
	C135.515472,108.408493 134.118896,108.977066 132.956390,108.304390 
M143.374451,108.250862 
	C145.556396,107.941917 147.738342,107.632980 149.920288,107.324036 
	C149.648849,105.652664 149.914215,103.471710 148.951004,102.457039 
	C148.036575,101.493759 144.679001,101.103035 144.407806,101.587303 
	C143.396362,103.393425 143.211884,105.662659 143.374451,108.250862 
M133.320404,102.986519 
	C136.191895,104.201302 138.412537,103.316895 138.819778,100.310036 
	C139.004730,98.944435 137.804245,96.817543 136.587479,96.021660 
	C135.654495,95.411400 132.535034,96.107880 132.427673,96.637009 
	C132.040466,98.545509 132.516342,100.629112 133.320404,102.986519 
M148.661606,113.613075 
	C147.189072,112.926735 145.716522,112.240387 144.243973,111.554039 
	C144.069443,112.721268 143.894913,113.888496 143.720383,115.055740 
	C145.328568,114.817955 146.936752,114.580170 148.661606,113.613075 
z"/>
<path fill="#D11A1D" opacity="1.000000" stroke="none" 
	d="
M95.350243,119.180153 
	C99.417274,115.932503 105.648399,115.780670 110.119415,119.169907 
	C118.446159,125.481956 118.407486,134.664185 113.045113,142.587616 
	C112.193130,143.846497 110.022736,144.213104 108.135506,144.610825 
	C108.229073,143.544617 108.983452,142.869980 109.004601,142.173080 
	C109.061958,140.282990 108.808334,138.383469 108.678024,136.487701 
	C107.177170,136.703476 104.634918,136.531693 104.381805,137.211807 
	C103.763138,138.874207 103.886032,141.012741 104.348236,142.794144 
	C104.585022,143.706772 106.190506,144.264297 107.177422,144.982300 
	C104.365005,147.970932 100.204727,147.908005 95.401398,144.266083 
	C97.786812,142.826401 101.197662,142.660202 99.646416,139.097473 
	C99.043770,137.713394 96.250404,135.917511 95.374619,136.318390 
	C93.822029,137.029037 92.972099,139.274811 91.828156,140.878235 
	C90.670906,140.163330 89.077370,139.721909 88.429245,138.687881 
	C84.966629,133.163681 87.689606,123.537155 93.983658,120.320152 
	C95.672104,122.748634 96.900154,124.859505 98.059769,127.319588 
	C97.144524,129.581284 94.638451,131.766251 97.976738,133.300766 
	C99.385803,133.948471 101.497414,133.067810 103.289688,132.881866 
	C102.296532,131.168533 101.336426,129.434464 100.284477,127.758018 
	C100.052933,127.389008 99.495438,127.224525 99.144821,126.607216 
	C102.461739,121.705086 102.082581,121.009216 95.350243,119.180153 
M110.835754,126.882118 
	C111.644897,124.011818 110.782257,121.784622 107.803482,121.229469 
	C106.737862,121.030869 104.659309,122.087463 104.295425,123.046371 
	C102.916840,126.679230 105.578133,128.271210 108.011589,129.683197 
	C108.958382,128.821075 109.682922,128.161331 110.835754,126.882118 
z"/>
<path fill="#D01A1D" opacity="1.000000" stroke="none" 
	d="
M40.779198,119.811996 
	C46.099110,110.424744 56.542282,109.916771 62.890923,112.672516 
	C68.539650,115.124451 71.187004,122.657730 68.009949,128.109650 
	C66.864807,127.927773 66.461472,127.610031 66.005035,127.482796 
	C64.698196,127.118477 63.359562,126.592026 62.055641,126.647865 
	C61.617451,126.666634 60.697296,128.503128 60.957985,129.055344 
	C61.505119,130.214355 62.607334,131.173141 63.642891,132.016037 
	C64.243629,132.505005 65.157486,132.609283 65.930435,132.886688 
	C65.107430,137.286133 62.409748,138.958145 57.951706,137.919952 
	C57.748013,135.851654 58.297001,133.149719 57.484150,132.646179 
	C56.143806,131.815887 53.923180,132.406631 52.073589,132.398407 
	C52.318775,133.971359 52.527393,135.551331 52.827065,137.113831 
	C52.947628,137.742447 53.267872,138.332764 53.497231,138.940521 
	C49.705479,141.522720 47.022034,138.505920 45.153889,136.393524 
	C42.800213,133.732132 41.613380,130.038803 40.218586,126.288216 
	C41.064312,125.471886 41.614582,125.158028 42.120163,125.233582 
	C42.387585,126.527519 42.456715,127.950089 43.060295,128.233185 
	C44.500023,128.908463 46.370911,129.607727 47.711937,129.180557 
	C48.462578,128.941452 49.252838,125.916367 48.680775,125.149391 
	C47.912952,124.119934 45.869823,123.891487 44.323509,123.664810 
	C43.681011,123.570610 42.907684,124.368828 42.083298,124.344223 
	C41.574894,122.555481 41.177048,121.183739 40.779198,119.811996 
M60.779785,122.667030 
	C62.150303,121.580513 64.056107,120.728958 64.677399,119.313568 
	C65.014656,118.545258 63.392632,116.490501 62.203716,115.665291 
	C61.640778,115.274551 59.046131,116.412949 59.048622,116.848961 
	C59.059105,118.681175 59.702866,120.509773 60.779785,122.667030 
M56.047249,123.290970 
	C54.757172,123.866898 53.467094,124.442825 52.177021,125.018761 
	C52.779026,126.070564 53.159702,127.433334 54.056187,128.071411 
	C54.720276,128.544083 56.055080,128.074417 57.091103,128.024551 
	C56.939041,126.602493 56.786983,125.180443 56.047249,123.290970 
M53.273739,114.291626 
	C51.560036,115.022018 49.846333,115.752403 48.132626,116.482788 
	C49.284996,117.404327 50.437366,118.325874 51.589737,119.247421 
	C52.342266,117.803391 53.094799,116.359352 53.273739,114.291626 
z"/>
<path fill="#D1181C" opacity="1.000000" stroke="none" 
	d="
M181.008072,137.722519 
	C183.699295,141.633530 180.691299,144.721741 179.126434,148.521255 
	C177.105438,150.169357 175.471619,151.370392 173.837799,152.571442 
	C168.625565,154.317291 163.523087,155.175446 159.427231,150.377014 
	C161.408844,148.915482 163.689911,148.133392 164.413696,146.610962 
	C164.827057,145.741486 162.703201,143.665771 161.721756,142.133179 
	C160.965210,142.481064 160.208664,142.828949 159.452118,143.176834 
	C158.961792,145.387039 158.471466,147.597229 157.981140,149.807419 
	C153.778641,147.741943 152.561417,144.176224 153.397964,139.389008 
	C155.529663,139.550415 157.189270,140.229980 158.909668,140.673950 
	C161.330490,141.298660 163.796402,141.748596 166.243042,142.273254 
	C166.564301,142.942917 166.885574,143.612579 167.206833,144.282242 
	C168.115158,142.201767 169.023483,140.121277 169.931793,138.040787 
	C168.106583,137.639343 166.287399,137.206131 164.451950,136.858765 
	C163.991180,136.771561 163.478241,136.959915 162.944962,136.770462 
	C162.628433,136.332138 162.356216,136.144974 161.946228,135.672958 
	C160.882690,134.554840 159.956940,133.721588 158.956818,132.547516 
	C156.403870,129.676666 155.694870,131.843628 154.425873,133.813828 
	C153.671982,133.943771 153.367294,133.976349 153.062607,134.008911 
	C156.304153,121.930832 175.508713,121.163628 179.766663,131.648773 
	C178.935394,132.466553 178.392548,132.895294 177.488617,133.282669 
	C175.808746,134.189926 174.206329,134.937164 173.316559,136.190369 
	C172.980072,136.664291 174.104401,139.054291 174.889435,139.248123 
	C176.203400,139.572525 177.790146,138.878998 179.240189,138.524384 
	C179.857895,138.373291 180.420456,137.996658 181.008072,137.722519 
M170.783356,133.596176 
	C170.669373,131.721298 170.751160,129.794464 170.278946,128.014633 
	C170.182587,127.651451 167.463562,127.315514 166.905701,127.890617 
	C165.920364,128.906433 165.667053,130.632339 165.107330,132.061020 
	C166.761276,132.705948 168.415222,133.350861 170.783356,133.596176 
M172.016022,148.565781 
	C173.569244,147.817749 175.199066,147.178802 176.591400,146.201553 
	C176.795258,146.058472 176.098694,143.686920 175.414841,143.432571 
	C174.200928,142.981110 172.677490,143.361908 171.283554,143.394516 
	C171.324890,144.964249 171.366226,146.533997 172.016022,148.565781 
z"/>
<path fill="#D11C20" opacity="1.000000" stroke="none" 
	d="
M52.793457,92.394180 
	C48.310707,85.701569 47.309162,79.485886 51.101738,73.454689 
	C54.596889,67.896461 61.249607,65.748199 67.713058,67.842705 
	C74.440231,70.022682 79.366211,76.756989 79.039833,83.746124 
	C78.972145,85.195496 77.862206,86.596191 76.814407,87.741035 
	C76.117142,86.513649 76.130615,85.208946 75.498535,84.688972 
	C74.154640,83.583427 72.475082,82.885918 70.933105,82.021156 
	C70.235809,83.529472 68.636185,85.412766 69.068001,86.451866 
	C69.616524,87.771828 71.746849,88.554283 73.332054,89.261703 
	C73.925255,89.526421 74.903282,88.928810 75.705841,88.724380 
	C75.699409,93.457344 71.481865,96.629761 65.127533,96.020378 
	C69.068245,92.842010 68.751228,90.396988 65.268860,87.970795 
	C68.065422,85.859306 66.383545,85.274895 64.686462,84.372231 
	C64.920563,80.344368 62.782337,78.449081 60.270451,80.298340 
	C58.969685,81.255981 58.837624,83.801079 57.993767,85.931656 
	C56.137806,88.287613 54.465630,90.340897 52.793457,92.394180 
M67.982162,75.781448 
	C66.866180,73.818855 65.986671,71.632523 64.479736,70.039833 
	C64.066299,69.602859 60.506413,71.102921 60.549156,71.442047 
	C60.839981,73.749680 61.708046,75.984558 62.502720,78.617142 
	C64.794388,77.357155 66.046318,76.668823 67.982162,75.781448 
M53.168896,79.641457 
	C54.796055,78.890526 56.423214,78.139595 58.050377,77.388672 
	C57.068035,76.339989 56.085697,75.291306 55.103355,74.242622 
	C54.286152,75.849518 53.468952,77.456421 53.168896,79.641457 
z"/>
<path fill="#D11A1E" opacity="1.000000" stroke="none" 
	d="
M78.904152,153.903732 
	C82.771629,150.452896 91.105621,151.471527 95.148674,155.889236 
	C99.369072,160.500732 100.196999,166.917450 96.710678,172.922546 
	C95.293419,172.357620 94.497131,171.678299 93.957848,170.710327 
	C94.720123,168.712021 95.383583,167.020844 95.587181,165.276001 
	C95.624535,164.955826 93.605881,163.858063 92.868248,164.106171 
	C91.639862,164.519394 89.685066,165.911865 89.804886,166.569916 
	C90.093765,168.156403 91.405876,169.556580 92.125801,171.378815 
	C91.430893,174.337173 90.915512,176.948593 90.400139,179.560013 
	C84.136375,182.289917 78.370842,181.399567 73.388519,176.797012 
	C68.539742,172.317841 67.994003,166.479385 70.238205,160.809586 
	C71.245148,158.265610 74.428658,156.583176 76.849449,154.873505 
	C74.388290,158.508194 77.185997,160.013977 78.957718,161.805313 
	C80.434891,161.079636 81.721825,160.447418 83.338768,159.987885 
	C84.093040,160.659088 84.492622,161.181366 84.945816,161.652023 
	C86.986496,163.771301 89.605225,164.348282 91.151382,161.801682 
	C92.045311,160.329346 91.861977,156.941498 90.745491,155.786911 
	C88.755127,153.728607 86.270370,154.713699 84.706039,157.295776 
	C84.319511,157.933807 83.599342,158.369690 82.899345,158.600983 
	C81.478813,156.836914 80.191483,155.370331 78.904152,153.903732 
M81.294167,173.574631 
	C81.703110,174.291031 81.940208,175.293137 82.556931,175.664078 
	C83.821770,176.424866 85.419075,177.465805 86.633781,177.212601 
	C87.599533,177.011261 89.100456,174.538177 88.782028,173.986160 
	C88.035767,172.692535 86.430534,171.765381 84.993736,171.049957 
	C84.196533,170.653015 83.038918,170.979874 81.990402,170.150192 
	C81.989365,169.488571 82.223602,168.698013 81.944519,168.188782 
	C80.993111,166.452698 80.206070,164.212051 78.683136,163.341202 
	C77.563400,162.700943 74.583008,163.364120 73.881760,164.414474 
	C72.908485,165.872299 72.770874,168.359650 73.200020,170.189438 
	C74.279434,174.791840 77.641426,174.154343 81.294167,173.574631 
z"/>
<path fill="#D01A1E" opacity="1.000000" stroke="none" 
	d="
M168.024185,109.388794 
	C163.686661,107.324562 161.003326,100.938942 161.980728,95.006989 
	C162.719101,90.525719 167.706345,84.773491 171.344040,84.207451 
	C179.049194,83.008499 182.213531,84.406754 184.988998,90.960182 
	C183.429031,92.825562 182.092804,94.066467 180.756577,95.307373 
	C182.445374,96.216530 184.134186,97.125679 185.837006,98.402344 
	C186.600082,100.536591 187.349152,102.303337 188.098236,104.070084 
	C184.187424,112.446022 178.970947,115.155861 172.315308,111.691261 
	C172.939316,109.607956 173.964767,108.030830 174.524216,106.302834 
	C174.632401,105.968704 172.258820,104.382645 172.146835,104.494286 
	C170.871948,105.765236 169.817764,107.256752 168.694687,108.681503 
	C168.494415,108.935577 168.248840,109.153938 168.024185,109.388794 
M164.768051,102.113136 
	C168.262939,104.490189 169.165771,101.270004 169.804886,99.279121 
	C170.145859,98.216972 168.577728,96.541946 167.871246,95.143532 
	C166.570984,96.318306 165.088760,97.357079 164.059372,98.734314 
	C163.643448,99.290802 164.217056,100.586906 164.768051,102.113136 
M175.181610,92.757462 
	C175.567123,90.908821 176.074661,89.068314 176.199051,87.202278 
	C176.216553,86.939766 173.939896,85.982971 173.457306,86.339241 
	C172.396103,87.122704 170.961868,88.790459 171.214645,89.641296 
	C171.602081,90.945442 173.282806,91.865372 175.181610,92.757462 
M179.836639,102.168289 
	C179.347351,103.713455 178.640991,105.244797 178.541000,106.814766 
	C178.519455,107.152901 180.834076,108.162865 181.802094,107.893044 
	C182.758835,107.626366 184.206284,105.625763 183.988113,105.266411 
	C183.204590,103.975952 181.807373,103.058121 179.836639,102.168289 
M175.694595,101.156105 
	C175.927673,99.545059 176.160767,97.934013 176.393845,96.322975 
	C175.162064,96.782051 173.351929,96.888184 172.813522,97.770416 
	C171.514114,99.899567 172.042603,101.619347 175.694595,101.156105 
z"/>
<path fill="#D11A1E" opacity="1.000000" stroke="none" 
	d="
M130.075760,56.019947 
	C133.231323,47.873619 141.963028,44.751240 148.627090,49.656239 
	C147.406143,50.441235 146.500870,50.817043 145.619171,51.241737 
	C142.908936,52.547195 141.228607,54.387600 142.977570,57.490501 
	C144.296570,59.830624 146.161148,61.173561 148.849915,59.329243 
	C151.479324,57.525650 152.085999,55.341137 150.063278,52.614304 
	C149.510712,51.869370 149.317520,50.857853 148.959412,49.968674 
	C151.263153,51.399071 153.566910,52.829468 155.700287,54.739632 
	C152.424973,59.203651 155.995819,58.593811 158.118317,58.980694 
	C160.542725,65.807289 157.022781,70.415283 152.170456,74.355011 
	C147.136276,78.442368 141.734085,78.778816 136.387527,75.185501 
	C138.376282,73.185249 140.180695,71.680191 141.985123,70.175133 
	C140.323196,68.775566 138.661270,67.376007 136.893600,65.725906 
	C136.527985,64.999245 136.268127,64.523132 136.335175,63.894108 
	C139.448380,62.500130 141.108780,60.529163 139.656509,57.472267 
	C138.270798,54.555462 135.839035,54.138611 132.952820,55.529293 
	C132.110550,55.935139 131.041092,55.869484 130.075760,56.019947 
M155.212799,63.687027 
	C154.088654,62.565434 152.964508,61.443840 151.840363,60.322247 
	C150.905807,61.340748 149.135193,62.454113 149.237411,63.354980 
	C149.381897,64.628410 150.709335,66.245567 151.925064,66.732849 
	C152.609070,67.007004 154.084854,65.305717 155.212799,63.687027 
M145.970230,67.405525 
	C145.684387,68.291847 144.898209,69.473846 145.212433,70.005547 
	C145.965179,71.279297 147.122192,72.419670 148.364609,73.235191 
	C148.744904,73.484810 150.658981,72.431389 150.625641,72.099876 
	C150.475784,70.609406 150.091843,69.038574 149.342621,67.760315 
	C149.015335,67.201942 147.609482,67.275742 145.970230,67.405525 
z"/>
<path fill="#F09899" opacity="1.000000" stroke="none" 
	d="
M162.989273,137.021637 
	C163.478241,136.959915 163.991180,136.771561 164.451950,136.858765 
	C166.287399,137.206131 168.106583,137.639343 169.931793,138.040787 
	C169.023483,140.121277 168.115158,142.201767 167.206833,144.282242 
	C166.885574,143.612579 166.564301,142.942917 166.243042,142.273254 
	C163.796402,141.748596 161.330490,141.298660 158.909668,140.673950 
	C157.189270,140.229980 155.529663,139.550415 153.479630,138.977051 
	C153.093842,137.488068 153.071350,135.998032 153.055725,134.258453 
	C153.367294,133.976349 153.671982,133.943771 154.717148,133.871460 
	C156.648804,133.517273 157.839996,133.202789 159.031174,132.888306 
	C159.956940,133.721588 160.882690,134.554840 161.715210,135.821686 
	C161.587387,136.659027 161.552795,137.062790 161.518204,137.466553 
	C162.008560,137.318253 162.498917,137.169952 162.989273,137.021637 
z"/>
<path fill="#D11A1F" opacity="1.000000" stroke="none" 
	d="
M52.970203,92.676170 
	C54.465630,90.340897 56.137806,88.287613 58.312408,85.995003 
	C60.714443,85.422844 62.614040,85.090012 64.513641,84.757179 
	C66.383545,85.274895 68.065422,85.859306 64.898880,87.986656 
	C59.184952,89.960228 58.796772,91.465218 62.098957,96.089500 
	C58.098991,97.950203 55.771461,95.029671 52.970203,92.676170 
z"/>
<path fill="#F29E9F" opacity="1.000000" stroke="none" 
	d="
M130.054459,56.363747 
	C131.041092,55.869484 132.110550,55.935139 132.952820,55.529293 
	C135.839035,54.138611 138.270798,54.555462 139.656509,57.472267 
	C141.108780,60.529163 139.448380,62.500130 136.002930,63.804203 
	C133.547928,62.169735 131.752090,60.472263 129.956238,58.774796 
	C129.981888,58.085712 130.007523,57.396626 130.054459,56.363747 
z"/>
<path fill="#D01A1D" opacity="1.000000" stroke="none" 
	d="
M129.563416,58.878418 
	C131.752090,60.472263 133.547928,62.169735 135.676010,63.957108 
	C136.268127,64.523132 136.527985,64.999245 136.608826,65.905701 
	C133.005402,67.513779 133.210205,70.128296 133.828613,72.906555 
	C128.635162,71.651558 126.425728,65.046783 129.563416,58.878418 
z"/>
<path fill="#85862D" opacity="1.000000" stroke="none" 
	d="
M141.324387,84.594521 
	C145.585373,83.757309 149.463974,82.854797 153.342590,81.952286 
	C153.609818,82.501465 153.877045,83.050644 154.144272,83.599823 
	C152.266983,84.710106 150.508194,86.197517 148.482101,86.834099 
	C146.013062,87.609848 143.311981,87.979713 140.725418,87.919273 
	C139.260941,87.885056 137.824829,86.636528 136.375946,85.934914 
	C137.897964,85.466347 139.419983,84.997787 141.324387,84.594521 
z"/>
<path fill="#83852C" opacity="1.000000" stroke="none" 
	d="
M91.874863,110.590935 
	C91.351990,111.738861 90.797775,112.676163 90.022682,113.364899 
	C87.233231,115.843552 84.387688,118.260445 81.521400,120.650368 
	C80.734932,121.306114 79.802101,121.786324 78.713715,122.491364 
	C78.043640,116.178642 85.315331,109.711655 91.874863,110.590935 
z"/>
<path fill="#F19C9D" opacity="1.000000" stroke="none" 
	d="
M133.966827,73.174484 
	C133.210205,70.128296 133.005402,67.513779 136.714569,66.156235 
	C138.661270,67.376007 140.323196,68.775566 141.985123,70.175133 
	C140.180695,71.680191 138.376282,73.185249 136.233337,74.846725 
	C135.298233,74.482903 134.701645,73.962662 133.966827,73.174484 
z"/>
<path fill="#82842C" opacity="1.000000" stroke="none" 
	d="
M60.444977,106.120171 
	C57.099342,106.062981 54.187984,106.062981 51.276623,106.062981 
	C51.121769,105.443497 50.966919,104.824020 50.812065,104.204536 
	C53.060295,103.551544 55.432484,102.097054 57.529560,102.421387 
	C61.273254,103.000389 66.056839,102.215195 67.599792,108.039551 
	C65.359612,107.418823 63.119431,106.798096 60.444977,106.120171 
z"/>
<path fill="#87862D" opacity="1.000000" stroke="none" 
	d="
M65.138184,60.092842 
	C61.777805,61.829094 58.753777,63.390842 55.669998,64.824036 
	C54.913177,65.175766 53.913963,65.309853 53.124004,65.125298 
	C52.838818,65.058678 52.540756,63.230457 52.755692,63.109848 
	C56.514694,61.000546 60.352509,59.031700 64.173195,57.032326 
	C64.599632,57.978542 65.026070,58.924751 65.138184,60.092842 
z"/>
<path fill="#84862C" opacity="1.000000" stroke="none" 
	d="
M115.990799,147.906555 
	C117.435051,144.672638 118.697189,141.770111 120.129417,138.476440 
	C123.475037,143.712402 119.155930,152.532852 112.081528,153.798965 
	C113.689270,151.400146 114.748978,149.819031 115.990799,147.906555 
z"/>
<path fill="#EF9597" opacity="1.000000" stroke="none" 
	d="
M122.336639,174.548996 
	C122.334923,173.882187 122.415688,173.313980 122.740807,172.994217 
	C124.193771,171.565155 125.544891,169.809601 127.310684,169.047287 
	C127.897087,168.794128 130.822189,171.636322 130.585175,172.235504 
	C129.889206,173.994919 128.141983,175.338486 126.445297,176.860413 
	C124.899979,176.171249 123.715797,175.466614 122.336639,174.548996 
z"/>
<path fill="#87862D" opacity="1.000000" stroke="none" 
	d="
M119.907272,108.100143 
	C119.916924,109.504837 120.028824,110.495781 119.952255,111.471939 
	C119.838219,112.925797 119.591141,114.369225 119.400681,115.817085 
	C118.315544,114.419182 116.533867,113.136185 116.280624,111.601044 
	C115.617439,107.580879 115.969612,103.590622 121.304703,100.134476 
	C120.682144,103.539589 120.303673,105.609680 119.907272,108.100143 
z"/>
<path fill="#8A7E2B" opacity="1.000000" stroke="none" 
	d="
M90.567810,179.880844 
	C90.915512,176.948593 91.430893,174.337173 92.355576,171.345703 
	C92.764893,170.965668 93.233765,170.957138 93.233765,170.957138 
	C93.233765,170.957138 93.700844,170.998978 93.700844,170.998978 
	C94.497131,171.678299 95.293419,172.357620 96.374748,173.157349 
	C96.108536,175.063797 95.515373,176.838287 95.018318,178.639282 
	C94.561356,180.295044 94.207832,181.979340 92.520309,183.901566 
	C91.925362,182.668259 91.330414,181.434967 90.567810,179.880844 
z"/>
<path fill="#87852D" opacity="1.000000" stroke="none" 
	d="
M42.164856,124.844162 
	C41.614582,125.158028 41.064312,125.471886 40.217957,125.899475 
	C35.491398,119.763512 35.048203,116.071289 39.139961,109.928421 
	C39.624924,113.882164 39.953880,116.564003 40.531013,119.528915 
	C41.177048,121.183739 41.574894,122.555481 42.082714,124.365189 
	C42.192688,124.803162 42.164856,124.844170 42.164856,124.844162 
z"/>
<path fill="#F19B9D" opacity="1.000000" stroke="none" 
	d="
M91.927368,141.207031 
	C92.972099,139.274811 93.822029,137.029037 95.374619,136.318390 
	C96.250404,135.917511 99.043770,137.713394 99.646416,139.097473 
	C101.197662,142.660202 97.786812,142.826401 95.318970,143.900177 
	C93.996155,143.224258 93.011368,142.380051 91.927368,141.207031 
z"/>
<path fill="#F29FA0" opacity="1.000000" stroke="none" 
	d="
M62.426285,96.066566 
	C58.796772,91.465218 59.184952,89.960228 64.537659,88.053146 
	C68.751228,90.396988 69.068245,92.842010 64.905975,95.710037 
	C64.068825,96.033897 63.411221,96.038765 62.426285,96.066566 
z"/>
<path fill="#F19C9D" opacity="1.000000" stroke="none" 
	d="
M107.300644,144.987167 
	C106.190506,144.264297 104.585022,143.706772 104.348236,142.794144 
	C103.886032,141.012741 103.763138,138.874207 104.381805,137.211807 
	C104.634918,136.531693 107.177170,136.703476 108.678024,136.487701 
	C108.808334,138.383469 109.061958,140.282990 109.004601,142.173080 
	C108.983452,142.869980 108.229073,143.544617 107.739807,144.611786 
	C107.670486,144.994171 107.423859,144.992035 107.300644,144.987167 
z"/>
<path fill="#87862D" opacity="1.000000" stroke="none" 
	d="
M155.541077,120.442215 
	C156.228973,116.610817 157.118393,113.033302 158.170059,109.504143 
	C158.349457,108.902107 159.240219,108.100388 159.771729,108.122627 
	C160.389816,108.148491 161.226028,108.857117 161.531219,109.482391 
	C163.177856,112.856209 159.634338,119.690315 155.541077,120.442215 
z"/>
<path fill="#85852C" opacity="1.000000" stroke="none" 
	d="
M145.786621,39.851360 
	C146.232819,41.015041 146.300873,42.030266 146.368912,43.045490 
	C142.054047,43.045490 137.739166,43.045490 133.424301,43.045490 
	C133.372604,42.515133 133.320908,41.984772 133.269211,41.454414 
	C136.661484,37.883617 141.004913,38.655930 145.786621,39.851360 
z"/>
<path fill="#85862C" opacity="1.000000" stroke="none" 
	d="
M118.478752,48.646442 
	C119.344841,48.410545 120.368523,48.251480 120.514961,48.539089 
	C122.492722,52.423401 124.348503,56.369823 126.336563,60.513653 
	C121.801231,60.458408 118.773491,55.792629 118.478752,48.646442 
z"/>
<path fill="#87812C" opacity="1.000000" stroke="none" 
	d="
M158.599152,58.913467 
	C155.995819,58.593811 152.424973,59.203651 155.825912,55.059715 
	C158.847366,55.242664 161.634033,55.352623 164.267349,56.045452 
	C165.283600,56.312832 165.951675,57.903584 166.778381,58.891403 
	C165.661392,59.040428 164.541962,59.325008 163.428040,59.304771 
	C161.976379,59.278408 160.529129,59.010315 158.599152,58.913467 
z"/>
<path fill="#84862C" opacity="1.000000" stroke="none" 
	d="
M109.547005,160.690460 
	C110.551262,161.591919 111.200287,162.353577 111.849304,163.115234 
	C111.002083,163.440842 109.826271,164.295288 109.360992,164.006195 
	C106.355103,162.138519 103.448990,160.091675 100.665009,157.906311 
	C100.268440,157.595032 100.710854,156.214920 100.764961,155.329498 
	C101.643570,155.550552 102.676170,155.550385 103.371635,156.034515 
	C105.384323,157.435547 107.261436,159.031326 109.547005,160.690460 
z"/>
<path fill="#86862D" opacity="1.000000" stroke="none" 
	d="
M117.702362,180.115967 
	C118.296318,181.728943 118.646278,183.069611 118.996231,184.410278 
	C117.776245,183.884308 116.165558,183.683441 115.407837,182.772827 
	C112.903679,179.763443 110.829857,176.467316 112.962173,170.644089 
	C114.834885,174.475800 116.146629,177.159714 117.702362,180.115967 
z"/>
<path fill="#F19D9E" opacity="1.000000" stroke="none" 
	d="
M53.793156,138.958984 
	C53.267872,138.332764 52.947628,137.742447 52.827065,137.113831 
	C52.527393,135.551331 52.318775,133.971359 52.073589,132.398407 
	C53.923180,132.406631 56.143806,131.815887 57.484150,132.646179 
	C58.297001,133.149719 57.748013,135.851654 57.579472,137.917450 
	C56.261761,138.505127 55.175419,138.741302 53.793156,138.958984 
z"/>
<path fill="#84832C" opacity="1.000000" stroke="none" 
	d="
M188.372330,104.286652 
	C187.349152,102.303337 186.600082,100.536591 185.979858,98.125061 
	C186.418045,97.209045 186.727417,96.937798 187.036774,96.666550 
	C189.034760,99.800247 191.209457,102.842072 192.917053,106.126724 
	C193.394958,107.046013 192.496353,108.680923 192.229187,109.987564 
	C191.434219,109.059776 190.549042,108.192528 189.872787,107.185051 
	C189.332169,106.379601 189.045700,105.403549 188.372330,104.286652 
z"/>
<path fill="#F19B9D" opacity="1.000000" stroke="none" 
	d="
M75.793167,88.667343 
	C74.903282,88.928810 73.925255,89.526421 73.332054,89.261703 
	C71.746849,88.554283 69.616524,87.771828 69.068001,86.451866 
	C68.636185,85.412766 70.235809,83.529472 70.933105,82.021156 
	C72.475082,82.885918 74.154640,83.583427 75.498535,84.688972 
	C76.130615,85.208946 76.117142,86.513649 76.389404,87.828842 
	C76.197548,88.311172 76.030182,88.449623 75.793167,88.667343 
z"/>
<path fill="#88872D" opacity="1.000000" stroke="none" 
	d="
M82.173584,103.286064 
	C82.928825,104.406616 83.798317,105.079308 84.105316,105.950256 
	C84.361115,106.675949 84.136780,107.733887 83.748032,108.435844 
	C83.610939,108.683403 82.112465,108.580696 81.661560,108.170097 
	C80.592514,107.196625 79.285522,106.062813 78.973000,104.775696 
	C78.460976,102.666969 78.593628,100.383080 78.656113,98.178780 
	C78.663338,97.924011 79.952957,97.705589 80.648010,97.470314 
	C81.113434,99.288231 81.578857,101.106140 82.173584,103.286064 
z"/>
<path fill="#82852C" opacity="1.000000" stroke="none" 
	d="
M82.116638,48.300755 
	C81.492325,51.491772 80.956276,54.285358 80.366669,57.358017 
	C76.476112,54.006390 77.374573,47.227501 82.798904,42.327183 
	C82.525566,44.893063 82.365227,46.398193 82.116638,48.300755 
z"/>
<path fill="#85862C" opacity="1.000000" stroke="none" 
	d="
M185.899078,124.238586 
	C183.663406,122.887299 181.605774,121.929047 179.749634,120.673050 
	C178.981964,120.153587 178.646057,118.996056 178.113785,118.128723 
	C178.954361,117.784111 180.070694,116.912079 180.589340,117.183235 
	C183.302460,118.601715 186.324020,119.882614 188.337219,122.048828 
	C190.045364,123.886780 188.967453,125.467834 185.899078,124.238586 
z"/>
<path fill="#83852C" opacity="1.000000" stroke="none" 
	d="
M66.440109,144.783371 
	C69.460999,141.964386 72.647537,139.465073 75.834068,136.965775 
	C76.264877,137.123489 76.695679,137.281189 77.126488,137.438904 
	C76.576172,138.955551 76.445816,140.932343 75.390427,141.895538 
	C73.001381,144.075821 70.626923,147.097046 66.440109,144.783371 
z"/>
<path fill="#84852C" opacity="1.000000" stroke="none" 
	d="
M94.810364,72.662979 
	C90.903595,71.895332 87.391541,71.160049 82.882149,70.215950 
	C86.406044,67.888611 95.000412,68.077103 96.276077,69.899185 
	C96.596550,70.356926 95.597641,71.738380 94.810364,72.662979 
z"/>
<path fill="#87862D" opacity="1.000000" stroke="none" 
	d="
M45.858398,153.070770 
	C46.123501,151.142548 46.479664,149.588226 46.835831,148.033920 
	C47.595154,149.221878 48.409916,150.378815 49.097630,151.606873 
	C49.736202,152.747177 50.365505,153.922668 50.763992,155.158417 
	C51.115440,156.248322 51.142574,157.442810 51.312912,158.591110 
	C50.096512,158.058838 48.634705,157.783295 47.733196,156.921585 
	C46.843601,156.071259 46.520878,154.627899 45.858398,153.070770 
z"/>
<path fill="#F0999A" opacity="1.000000" stroke="none" 
	d="
M181.005035,137.395935 
	C180.420456,137.996658 179.857895,138.373291 179.240189,138.524384 
	C177.790146,138.878998 176.203400,139.572525 174.889435,139.248123 
	C174.104401,139.054291 172.980072,136.664291 173.316559,136.190369 
	C174.206329,134.937164 175.808746,134.189926 177.687469,133.522797 
	C179.140030,134.239182 180.032639,134.674088 180.925247,135.108994 
	C180.950836,135.762451 180.976425,136.415894 181.005035,137.395935 
z"/>
<path fill="#84852C" opacity="1.000000" stroke="none" 
	d="
M61.042435,158.066574 
	C62.791527,161.443604 64.181244,164.962189 65.427826,168.530777 
	C65.531998,168.828995 64.566177,169.922546 64.279877,169.856445 
	C63.427437,169.659653 62.065529,169.174255 61.967167,168.614563 
	C61.363377,165.178818 61.053406,161.691406 61.042435,158.066574 
z"/>
<path fill="#82852C" opacity="1.000000" stroke="none" 
	d="
M162.025848,168.427933 
	C159.402771,168.592499 157.154846,168.592499 154.906906,168.592499 
	C154.835083,168.074097 154.763260,167.555679 154.691437,167.037277 
	C158.554260,165.664459 162.417099,164.291641 166.279922,162.918823 
	C166.635162,163.404388 166.990402,163.889954 167.345642,164.375519 
	C165.697433,165.671463 164.049225,166.967422 162.025848,168.427933 
z"/>
<path fill="#85862C" opacity="1.000000" stroke="none" 
	d="
M165.163208,72.419983 
	C166.627487,71.709282 167.860413,71.280975 169.093353,70.852676 
	C168.748932,72.085449 168.508987,73.359840 168.038010,74.542206 
	C167.095856,76.907532 166.027191,79.222473 164.553253,82.609596 
	C161.956818,78.497498 162.932281,75.592278 165.163208,72.419983 
z"/>
<path fill="#82852C" opacity="1.000000" stroke="none" 
	d="
M40.707195,92.202225 
	C40.630600,90.646309 40.716652,89.417290 40.887306,86.979919 
	C44.310417,91.064713 46.791092,94.024902 49.784451,97.596870 
	C44.676758,98.156563 42.722137,95.426598 40.707195,92.202225 
z"/>
<path fill="#88832C" opacity="1.000000" stroke="none" 
	d="
M112.902618,41.477249 
	C111.421310,42.056286 110.062119,42.310566 108.702919,42.564842 
	C108.791107,41.413525 108.879295,40.262203 109.091614,38.810516 
	C110.132881,37.474125 110.996063,36.382710 111.984329,35.419666 
	C112.768723,34.655285 113.706261,34.048058 114.575806,33.371048 
	C114.781876,34.517353 115.363091,35.757309 115.105797,36.787941 
	C114.723213,38.320454 113.747833,39.704983 112.902618,41.477249 
z"/>
<path fill="#83852C" opacity="1.000000" stroke="none" 
	d="
M139.007889,184.999115 
	C136.699814,184.901184 134.460068,183.720779 136.808746,182.398499 
	C139.910522,180.652206 143.955826,180.581802 148.829163,179.522964 
	C146.326645,184.879715 142.405670,183.980118 139.007889,184.999115 
z"/>
<path fill="#81842C" opacity="1.000000" stroke="none" 
	d="
M83.555138,148.306702 
	C81.818977,148.591797 80.497902,148.753372 78.675018,148.976349 
	C81.187683,144.144272 87.571419,143.391434 92.730713,147.533691 
	C89.177414,147.797134 86.573822,147.990173 83.555138,148.306702 
z"/>
<path fill="#86852D" opacity="1.000000" stroke="none" 
	d="
M174.038651,152.919891 
	C175.471619,151.370392 177.105438,150.169357 179.025238,148.899567 
	C180.640259,148.308868 181.969284,147.786880 183.350586,147.244354 
	C183.981842,151.684082 179.767593,154.346573 174.038651,152.919891 
z"/>
<path fill="#80832B" opacity="1.000000" stroke="none" 
	d="
M126.599609,127.996826 
	C123.847893,128.026138 121.531700,128.026138 119.215500,128.026138 
	C119.164856,127.244560 119.114204,126.462990 119.063560,125.681412 
	C122.896324,125.059059 126.729088,124.436707 130.561859,123.814346 
	C130.814285,124.405800 131.066727,124.997253 131.319168,125.588699 
	C129.891159,126.381638 128.463135,127.174583 126.599609,127.996826 
z"/>
<path fill="#86862D" opacity="1.000000" stroke="none" 
	d="
M184.920959,81.762070 
	C183.881104,82.065826 182.670334,82.355377 182.070969,81.877739 
	C181.227737,81.205742 180.718018,80.014153 180.281204,78.955811 
	C179.534576,77.146858 178.955154,75.268898 178.305511,73.419922 
	C180.037964,74.704201 181.985474,75.789368 183.425308,77.344551 
	C184.345917,78.338905 184.516235,80.027885 184.920959,81.762070 
z"/>
<path fill="#F19D9E" opacity="1.000000" stroke="none" 
	d="
M78.685532,153.936096 
	C80.191483,155.370331 81.478813,156.836914 82.891953,158.830170 
	C83.017761,159.356827 83.008766,159.815186 83.008766,159.815186 
	C81.721825,160.447418 80.434891,161.079636 78.957718,161.805313 
	C77.185997,160.013977 74.388290,158.508194 77.171646,154.824326 
	C77.668228,154.263794 78.067566,154.116135 78.685532,153.936096 
z"/>
<path fill="#85852C" opacity="1.000000" stroke="none" 
	d="
M138.616379,139.912109 
	C138.297195,137.139420 138.011597,134.700745 138.194168,132.297668 
	C138.245193,131.626175 139.677673,131.059647 140.476425,130.444962 
	C140.844162,131.241486 141.431549,132.010300 141.536194,132.839996 
	C141.792862,134.875015 141.915634,136.938416 141.908310,138.989731 
	C141.905243,139.846680 141.435425,140.701935 141.177856,141.557968 
	C140.394257,141.125168 139.610641,140.692383 138.616379,139.912109 
z"/>
<path fill="#84852C" opacity="1.000000" stroke="none" 
	d="
M123.241974,82.948334 
	C121.426605,80.588768 119.837593,78.364143 118.641251,75.945305 
	C118.329605,75.315208 119.242378,74.079521 119.592789,73.121979 
	C120.385986,73.681931 121.442093,74.076942 121.918167,74.835831 
	C122.939743,76.464294 123.868843,78.218834 124.414108,80.047493 
	C124.662842,80.881653 123.912186,82.013817 123.241974,82.948334 
z"/>
<path fill="#EE9192" opacity="1.000000" stroke="none" 
	d="
M95.214157,119.269379 
	C102.082581,121.009216 102.461739,121.705086 98.904816,126.619202 
	C98.608025,126.989830 98.128204,126.970367 98.128204,126.970367 
	C96.900154,124.859505 95.672104,122.748634 94.358200,120.293900 
	C94.540916,119.752899 94.809486,119.555748 95.214157,119.269379 
z"/>
<path fill="#D22124" opacity="1.000000" stroke="none" 
	d="
M158.245056,149.855225 
	C158.471466,147.597229 158.961792,145.387039 159.452118,143.176834 
	C160.208664,142.828949 160.965210,142.481064 161.721756,142.133179 
	C162.703201,143.665771 164.827057,145.741486 164.413696,146.610962 
	C163.689911,148.133392 161.408844,148.915482 159.407578,150.008118 
	C158.859634,149.973328 158.684311,149.938171 158.245056,149.855225 
z"/>
<path fill="#F09899" opacity="1.000000" stroke="none" 
	d="
M66.096886,132.610016 
	C65.157486,132.609283 64.243629,132.505005 63.642891,132.016037 
	C62.607334,131.173141 61.505119,130.214355 60.957985,129.055344 
	C60.697296,128.503128 61.617451,126.666634 62.055641,126.647865 
	C63.359562,126.592026 64.698196,127.118477 66.005035,127.482796 
	C66.461472,127.610031 66.864807,127.927773 67.653458,128.276367 
	C67.430801,129.707260 66.847069,131.020309 66.096886,132.610016 
z"/>
<path fill="#EF9596" opacity="1.000000" stroke="none" 
	d="
M168.194183,109.628510 
	C168.248840,109.153938 168.494415,108.935577 168.694687,108.681503 
	C169.817764,107.256752 170.871948,105.765236 172.146835,104.494286 
	C172.258820,104.382645 174.632401,105.968704 174.524216,106.302834 
	C173.964767,108.030830 172.939316,109.607956 171.977417,111.568222 
	C170.707031,111.221916 169.535614,110.545074 168.194183,109.628510 
z"/>
<path fill="#F0999A" opacity="1.000000" stroke="none" 
	d="
M187.022186,96.332611 
	C186.727417,96.937798 186.418045,97.209045 185.965836,97.757561 
	C184.134186,97.125679 182.445374,96.216530 180.756577,95.307373 
	C182.092804,94.066467 183.429031,92.825562 185.069702,91.328094 
	C185.918640,92.713921 186.463104,94.356300 187.022186,96.332611 
z"/>
<path fill="#81842B" opacity="1.000000" stroke="none" 
	d="
M152.467468,154.166718 
	C151.611435,155.296768 150.912628,156.043701 150.213821,156.790634 
	C149.816406,156.333740 149.033951,155.829697 149.083206,155.427505 
	C149.439270,152.519943 149.963501,149.632950 150.434464,146.739456 
	C151.164536,146.781998 151.894623,146.824524 152.624695,146.867065 
	C152.624695,149.172562 152.624695,151.478073 152.467468,154.166718 
z"/>
<path fill="#D0191D" opacity="1.000000" stroke="none" 
	d="
M180.985870,134.767181 
	C180.032639,134.674088 179.140030,134.239182 178.048553,133.564148 
	C178.392548,132.895294 178.935394,132.466553 179.838760,131.991364 
	C180.481689,132.771744 180.764084,133.598557 180.985870,134.767181 
z"/>
<path fill="#F19D9E" opacity="1.000000" stroke="none" 
	d="
M91.878906,43.897263 
	C93.888550,44.417828 95.830536,44.884319 97.175705,46.043423 
	C97.634384,46.438663 96.867134,49.522526 96.180176,49.721539 
	C94.686104,50.154388 92.048561,50.094341 91.419838,49.178070 
	C90.649231,48.055038 91.453880,45.851097 91.878906,43.897263 
z"/>
<path fill="#F3A1A2" opacity="1.000000" stroke="none" 
	d="
M98.979080,54.960300 
	C99.024734,55.949821 99.453606,57.159264 99.037727,57.883926 
	C98.119492,59.483963 96.775826,60.839859 95.605721,62.295364 
	C94.371056,61.049484 93.136391,59.803604 91.901733,58.557724 
	C93.338989,57.363953 94.721207,56.091175 96.248833,55.027145 
	C96.677147,54.728813 97.533325,55.044788 98.604050,55.033936 
	C99.014847,54.988895 98.979088,54.960300 98.979080,54.960300 
z"/>
<path fill="#F19D9E" opacity="1.000000" stroke="none" 
	d="
M99.029709,55.006340 
	C98.670738,53.453148 98.296906,51.882515 97.629257,49.077393 
	C99.903214,49.077393 101.954559,48.789787 103.829704,49.238514 
	C104.458138,49.388908 105.226608,52.228554 104.922356,52.449429 
	C103.402840,53.552494 101.547859,54.193443 99.394989,54.978622 
	C98.979088,54.960300 99.014847,54.988895 99.029709,55.006340 
z"/>
<path fill="#F3A2A3" opacity="1.000000" stroke="none" 
	d="
M108.011162,50.967548 
	C109.339272,49.718388 110.593826,48.622234 112.047546,48.178402 
	C112.430779,48.061401 113.977318,49.952381 113.990158,50.934364 
	C114.002853,51.905228 112.474655,53.820129 112.103943,53.709354 
	C110.637383,53.271130 109.359764,52.200584 108.011162,50.967548 
z"/>
<path fill="#F3A2A3" opacity="1.000000" stroke="none" 
	d="
M140.976379,171.938080 
	C139.551315,173.614670 138.218002,175.031372 136.614883,176.002838 
	C136.379761,176.145340 134.019775,174.068298 134.125916,173.199356 
	C134.305847,171.726089 135.539764,169.386581 136.563980,169.257141 
	C137.918777,169.085907 139.498230,170.692215 140.976379,171.938080 
z"/>
<path fill="#F4A4A5" opacity="1.000000" stroke="none" 
	d="
M139.548965,154.167755 
	C140.452103,156.159363 140.975174,158.007309 141.498260,159.855270 
	C140.012238,160.201843 138.226593,161.208679 137.124741,160.708679 
	C136.030258,160.211990 134.716568,157.728912 135.117279,156.956711 
	C135.803467,155.634415 137.751022,154.966690 139.548965,154.167755 
z"/>
<path fill="#F19D9E" opacity="1.000000" stroke="none" 
	d="
M127.215683,163.905731 
	C127.785393,162.747238 128.391129,161.293442 128.927979,161.318451 
	C130.581268,161.395477 132.323883,161.817551 133.781036,162.582932 
	C134.273849,162.841782 134.304214,165.338806 134.058197,165.425262 
	C132.509674,165.969482 130.813889,166.359772 129.187881,166.292267 
	C128.505417,166.263962 127.874527,164.992905 127.215683,163.905731 
z"/>
<path fill="#F4A4A5" opacity="1.000000" stroke="none" 
	d="
M129.838699,152.952454 
	C130.381851,154.605865 130.533218,156.176727 130.684586,157.747574 
	C129.229660,157.386093 127.774742,157.024612 126.319824,156.663132 
	C127.362190,155.398727 128.404556,154.134323 129.838699,152.952454 
z"/>
<path fill="#F19B9C" opacity="1.000000" stroke="none" 
	d="
M105.358673,88.390137 
	C107.606552,88.815994 109.602119,89.505836 111.597694,90.195679 
	C110.786377,92.161888 110.238937,94.324501 109.007980,95.978386 
	C108.622963,96.495682 106.038506,96.089844 105.079338,95.327934 
	C102.520645,93.295441 102.611862,90.872696 105.358673,88.390137 
z"/>
<path fill="#F0999A" opacity="1.000000" stroke="none" 
	d="
M98.024460,86.015472 
	C97.616608,85.009239 96.735359,83.912552 96.906471,83.016937 
	C97.198586,81.488060 98.013397,78.975777 98.855843,78.871384 
	C100.388710,78.681427 102.217270,79.787064 103.635361,80.767365 
	C103.890450,80.943718 103.050911,83.386086 102.195915,84.289047 
	C101.381561,85.149048 99.886230,85.364243 98.343628,85.934265 
	C97.996948,86.005608 98.024460,86.015472 98.024460,86.015472 
z"/>
<path fill="#F29FA0" opacity="1.000000" stroke="none" 
	d="
M96.100693,100.113998 
	C94.885887,98.449806 93.752441,96.858322 93.474113,95.129196 
	C93.386406,94.584335 95.733788,92.923393 96.710754,93.110382 
	C97.998215,93.356796 100.158661,95.455925 99.982231,95.827744 
	C99.213821,97.447166 97.734016,98.729027 96.100693,100.113998 
z"/>
<path fill="#F09798" opacity="1.000000" stroke="none" 
	d="
M97.992508,85.991905 
	C97.886971,86.431213 97.892044,86.947586 97.666168,87.326149 
	C96.744270,88.871208 95.751755,90.374130 94.785248,91.892578 
	C93.172729,90.835037 91.560219,89.777489 89.911003,88.695885 
	C91.962875,84.495094 94.656181,85.449783 97.680130,86.182419 
	C98.024460,86.015472 97.996948,86.005608 97.992508,85.991905 
z"/>
<path fill="#F29FA0" opacity="1.000000" stroke="none" 
	d="
M132.979462,109.080536 
	C134.118896,108.977066 135.515472,108.408493 136.344330,108.866760 
	C138.079865,109.826324 140.338226,111.093010 140.791306,112.685974 
	C141.101562,113.776718 138.726868,115.631142 137.552460,117.144165 
	C136.061905,115.777145 134.534576,114.446358 133.116638,113.007774 
	C132.877762,112.765427 133.111115,112.057632 133.083694,110.874245 
	C133.020569,109.815910 133.000015,109.448227 132.979462,109.080536 
z"/>
<path fill="#F3A3A4" opacity="1.000000" stroke="none" 
	d="
M143.045776,108.004494 
	C143.211884,105.662659 143.396362,103.393425 144.407806,101.587303 
	C144.679001,101.103035 148.036575,101.493759 148.951004,102.457039 
	C149.914215,103.471710 149.648849,105.652664 149.920288,107.324036 
	C147.738342,107.632980 145.556396,107.941917 143.045776,108.004494 
z"/>
<path fill="#F19D9E" opacity="1.000000" stroke="none" 
	d="
M132.993317,102.816559 
	C132.516342,100.629112 132.040466,98.545509 132.427673,96.637009 
	C132.535034,96.107880 135.654495,95.411400 136.587479,96.021660 
	C137.804245,96.817543 139.004730,98.944435 138.819778,100.310036 
	C138.412537,103.316895 136.191895,104.201302 132.993317,102.816559 
z"/>
<path fill="#F09899" opacity="1.000000" stroke="none" 
	d="
M132.967926,108.692459 
	C133.000015,109.448227 133.020569,109.815910 133.062469,110.457703 
	C132.299835,110.605591 131.333862,110.724472 130.768066,110.304398 
	C129.405350,109.292618 128.229935,108.028542 126.978966,106.866226 
	C127.929184,105.929581 128.879395,104.992935 129.829605,104.056282 
	C130.871872,105.472321 131.914124,106.888359 132.967926,108.692459 
z"/>
<path fill="#EF9597" opacity="1.000000" stroke="none" 
	d="
M148.603271,113.977722 
	C146.936752,114.580170 145.328568,114.817955 143.720367,115.055740 
	C143.894913,113.888496 144.069443,112.721268 144.243988,111.554039 
	C145.716522,112.240387 147.189072,112.926735 148.603271,113.977722 
z"/>
<path fill="#F19C9D" opacity="1.000000" stroke="none" 
	d="
M110.621613,127.191856 
	C109.682922,128.161331 108.958382,128.821075 108.011589,129.683197 
	C105.578133,128.271210 102.916840,126.679230 104.295425,123.046371 
	C104.659309,122.087463 106.737862,121.030869 107.803482,121.229469 
	C110.782257,121.784622 111.644897,124.011818 110.621613,127.191856 
z"/>
<path fill="#F29E9F" opacity="1.000000" stroke="none" 
	d="
M98.059769,127.319588 
	C98.128204,126.970367 98.608025,126.989830 98.848038,126.977844 
	C99.495438,127.224525 100.052933,127.389008 100.284477,127.758018 
	C101.336426,129.434464 102.296532,131.168533 103.289688,132.881866 
	C101.497414,133.067810 99.385803,133.948471 97.976738,133.300766 
	C94.638451,131.766251 97.144524,129.581284 98.059769,127.319588 
z"/>
<path fill="#F0999A" opacity="1.000000" stroke="none" 
	d="
M60.447289,122.503357 
	C59.702866,120.509773 59.059105,118.681175 59.048622,116.848961 
	C59.046131,116.412949 61.640778,115.274551 62.203716,115.665291 
	C63.392632,116.490501 65.014656,118.545258 64.677399,119.313568 
	C64.056107,120.728958 62.150303,121.580513 60.447289,122.503357 
z"/>
<path fill="#F19B9C" opacity="1.000000" stroke="none" 
	d="
M42.120163,125.233582 
	C42.164856,124.844170 42.192688,124.803162 42.193268,124.782196 
	C42.907684,124.368828 43.681011,123.570610 44.323509,123.664810 
	C45.869823,123.891487 47.912952,124.119934 48.680775,125.149391 
	C49.252838,125.916367 48.462578,128.941452 47.711937,129.180557 
	C46.370911,129.607727 44.500023,128.908463 43.060295,128.233185 
	C42.456715,127.950089 42.387585,126.527519 42.120163,125.233582 
z"/>
<path fill="#F09798" opacity="1.000000" stroke="none" 
	d="
M56.341087,123.524673 
	C56.786983,125.180443 56.939041,126.602493 57.091103,128.024551 
	C56.055080,128.074417 54.720276,128.544083 54.056187,128.071411 
	C53.159702,127.433334 52.779026,126.070564 52.177017,125.018761 
	C53.467094,124.442825 54.757172,123.866898 56.341087,123.524673 
z"/>
<path fill="#F19C9D" opacity="1.000000" stroke="none" 
	d="
M53.560532,114.603470 
	C53.094799,116.359352 52.342266,117.803391 51.589737,119.247421 
	C50.437366,118.325874 49.284996,117.404327 48.132626,116.482788 
	C49.846333,115.752403 51.560036,115.022018 53.560532,114.603470 
z"/>
<path fill="#F29FA0" opacity="1.000000" stroke="none" 
	d="
M170.426270,133.795990 
	C168.415222,133.350861 166.761276,132.705948 165.107330,132.061020 
	C165.667053,130.632339 165.920364,128.906433 166.905701,127.890617 
	C167.463562,127.315514 170.182587,127.651451 170.278946,128.014633 
	C170.751160,129.794464 170.669373,131.721298 170.426270,133.795990 
z"/>
<path fill="#F19C9D" opacity="1.000000" stroke="none" 
	d="
M171.711792,148.334747 
	C171.366226,146.533997 171.324890,144.964249 171.283539,143.394516 
	C172.677490,143.361908 174.200928,142.981110 175.414841,143.432571 
	C176.098694,143.686920 176.795258,146.058472 176.591400,146.201553 
	C175.199066,147.178802 173.569244,147.817749 171.711792,148.334747 
z"/>
<path fill="#D0191D" opacity="1.000000" stroke="none" 
	d="
M158.956818,132.547516 
	C157.839996,133.202789 156.648804,133.517273 155.166351,133.774109 
	C155.694870,131.843628 156.403870,129.676666 158.956818,132.547516 
z"/>
<path fill="#F0999B" opacity="1.000000" stroke="none" 
	d="
M162.944962,136.770462 
	C162.498917,137.169952 162.008560,137.318253 161.518204,137.466553 
	C161.552795,137.062790 161.587387,136.659027 161.852982,136.106537 
	C162.356216,136.144974 162.628433,136.332138 162.944962,136.770462 
z"/>
<path fill="#F19C9D" opacity="1.000000" stroke="none" 
	d="
M67.640213,75.880966 
	C66.046318,76.668823 64.794388,77.357155 62.502720,78.617142 
	C61.708046,75.984558 60.839981,73.749680 60.549156,71.442047 
	C60.506413,71.102921 64.066299,69.602859 64.479736,70.039833 
	C65.986671,71.632523 66.866180,73.818855 67.640213,75.880966 
z"/>
<path fill="#F19D9E" opacity="1.000000" stroke="none" 
	d="
M64.686462,84.372231 
	C62.614040,85.090012 60.714443,85.422844 58.496201,85.692337 
	C58.837624,83.801079 58.969685,81.255981 60.270451,80.298340 
	C62.782337,78.449081 64.920563,80.344368 64.686462,84.372231 
z"/>
<path fill="#F0999A" opacity="1.000000" stroke="none" 
	d="
M52.910324,79.352386 
	C53.468952,77.456421 54.286152,75.849518 55.103355,74.242622 
	C56.085697,75.291306 57.068035,76.339989 58.050377,77.388672 
	C56.423214,78.139595 54.796055,78.890526 52.910324,79.352386 
z"/>
<path fill="#F2A0A1" opacity="1.000000" stroke="none" 
	d="
M81.010818,172.941116 
	C77.641426,174.154343 74.279434,174.791840 73.200020,170.189438 
	C72.770874,168.359650 72.908485,165.872299 73.881760,164.414474 
	C74.583008,163.364120 77.563400,162.700943 78.683136,163.341202 
	C80.206070,164.212051 80.993111,166.452698 81.944519,168.188782 
	C82.223602,168.698013 81.989365,169.488571 81.768295,170.725555 
	C81.367737,171.847656 81.189278,172.394379 81.010818,172.941116 
z"/>
<path fill="#F3A1A2" opacity="1.000000" stroke="none" 
	d="
M83.338768,159.987885 
	C83.008766,159.815186 83.017761,159.356827 83.025146,159.127655 
	C83.599342,158.369690 84.319511,157.933807 84.706039,157.295776 
	C86.270370,154.713699 88.755127,153.728607 90.745491,155.786911 
	C91.861977,156.941498 92.045311,160.329346 91.151382,161.801682 
	C89.605225,164.348282 86.986496,163.771301 84.945816,161.652023 
	C84.492622,161.181366 84.093040,160.659088 83.338768,159.987885 
z"/>
<path fill="#EF9596" opacity="1.000000" stroke="none" 
	d="
M81.152496,173.257874 
	C81.189278,172.394379 81.367737,171.847656 81.794968,171.140717 
	C83.038918,170.979874 84.196533,170.653015 84.993736,171.049957 
	C86.430534,171.765381 88.035767,172.692535 88.782028,173.986160 
	C89.100456,174.538177 87.599533,177.011261 86.633781,177.212601 
	C85.419075,177.465805 83.821770,176.424866 82.556931,175.664078 
	C81.940208,175.293137 81.703110,174.291031 81.152496,173.257874 
z"/>
<path fill="#F29FA0" opacity="1.000000" stroke="none" 
	d="
M93.957848,170.710327 
	C93.700844,170.998978 93.233765,170.957138 93.233765,170.957138 
	C93.233765,170.957138 92.764893,170.965668 92.535110,170.998779 
	C91.405876,169.556580 90.093765,168.156403 89.804886,166.569916 
	C89.685066,165.911865 91.639862,164.519394 92.868248,164.106171 
	C93.605881,163.858063 95.624535,164.955826 95.587181,165.276001 
	C95.383583,167.020844 94.720123,168.712021 93.957848,170.710327 
z"/>
<path fill="#F19B9C" opacity="1.000000" stroke="none" 
	d="
M164.554199,101.829788 
	C164.217056,100.586906 163.643448,99.290802 164.059372,98.734314 
	C165.088760,97.357079 166.570984,96.318306 167.871246,95.143539 
	C168.577728,96.541946 170.145859,98.216972 169.804886,99.279121 
	C169.165771,101.270004 168.262939,104.490189 164.554199,101.829788 
z"/>
<path fill="#F19D9E" opacity="1.000000" stroke="none" 
	d="
M174.798126,92.852913 
	C173.282806,91.865372 171.602081,90.945442 171.214645,89.641296 
	C170.961868,88.790459 172.396103,87.122704 173.457306,86.339241 
	C173.939896,85.982971 176.216553,86.939766 176.199051,87.202278 
	C176.074661,89.068314 175.567123,90.908821 174.798126,92.852913 
z"/>
<path fill="#F4A4A5" opacity="1.000000" stroke="none" 
	d="
M180.239380,102.083862 
	C181.807373,103.058121 183.204590,103.975952 183.988113,105.266411 
	C184.206284,105.625763 182.758835,107.626366 181.802094,107.893044 
	C180.834076,108.162865 178.519455,107.152901 178.541000,106.814766 
	C178.640991,105.244797 179.347351,103.713455 180.239380,102.083862 
z"/>
<path fill="#EE9394" opacity="1.000000" stroke="none" 
	d="
M175.379944,101.318970 
	C172.042603,101.619347 171.514114,99.899567 172.813522,97.770416 
	C173.351929,96.888184 175.162064,96.782051 176.393845,96.322968 
	C176.160767,97.934013 175.927673,99.545059 175.379944,101.318970 
z"/>
<path fill="#F29E9F" opacity="1.000000" stroke="none" 
	d="
M148.974075,49.986488 
	C149.317520,50.857853 149.510712,51.869370 150.063278,52.614304 
	C152.085999,55.341137 151.479324,57.525650 148.849915,59.329243 
	C146.161148,61.173561 144.296570,59.830624 142.977570,57.490501 
	C141.228607,54.387600 142.908936,52.547195 145.619171,51.241737 
	C146.500870,50.817043 147.406143,50.441235 148.663239,50.037338 
	C149.025833,50.031616 148.988739,50.004295 148.974075,49.986488 
z"/>
<path fill="#F2A0A1" opacity="1.000000" stroke="none" 
	d="
M155.208374,64.090698 
	C154.084854,65.305717 152.609070,67.007004 151.925064,66.732849 
	C150.709335,66.245567 149.381897,64.628410 149.237411,63.354980 
	C149.135193,62.454113 150.905807,61.340748 151.840363,60.322247 
	C152.964508,61.443840 154.088654,62.565434 155.208374,64.090698 
z"/>
<path fill="#F3A1A2" opacity="1.000000" stroke="none" 
	d="
M146.331833,67.233994 
	C147.609482,67.275742 149.015335,67.201942 149.342621,67.760315 
	C150.091843,69.038574 150.475784,70.609406 150.625641,72.099876 
	C150.658981,72.431389 148.744904,73.484810 148.364609,73.235191 
	C147.122192,72.419670 145.965179,71.279297 145.212433,70.005547 
	C144.898209,69.473846 145.684387,68.291847 146.331833,67.233994 
z"/>
</svg>