<svg width="100" height="100" viewBox="0 0 100 100" fill="none" xmlns="http://www.w3.org/2000/svg">
<path d="M69.6167 40.3H66.1167C65.9167 40.3 65.8167 40.5 65.8167 40.6V48.2167H62.3167V40.6C62.3167 40.4 62.1167 40.3 62.0167 40.3H58.5167C58.3167 40.3 58.2167 40.5 58.2167 40.6V60.15C58.2167 60.35 58.4167 60.45 58.5167 60.45H62.0167C62.2167 60.45 62.3167 60.25 62.3167 60.15V52.3333H65.8167V60.15C65.8167 60.35 66.0167 60.45 66.1167 60.45H69.6167C69.8167 60.45 69.9167 60.25 69.9167 60.15V40.6C69.9167 40.5 69.8167 40.3 69.6167 40.3ZM40.1167 40.3H36.6167C36.4167 40.3 36.3167 40.4 36.3167 40.6V54.45C36.3357 55.0245 36.1595 55.5886 35.8167 56.05C35.5167 56.45 35.1167 56.55 34.6167 56.55C34.3935 56.5501 34.1726 56.506 33.9666 56.4202C33.7606 56.3344 33.5737 56.2085 33.4167 56.05C33.0739 55.5886 32.8976 55.0245 32.9167 54.45V40.6C32.9167 40.4 32.7167 40.3 32.6167 40.3H29.1167C28.9167 40.3 28.8167 40.4 28.8167 40.6V54.55C28.8167 56.35 29.2167 58.05 30.3167 59.1667C31.4167 60.2667 32.9167 60.8667 34.6333 60.8667C36.4333 60.8667 37.95 60.2667 38.95 59.1667C40.05 58.0667 40.45 56.4667 40.45 54.55V40.6C40.4333 40.5 40.3333 40.3 40.1167 40.3ZM5.81667 40C4.01667 40 2.5 40.6 1.5 41.7C0.4 42.8 0 44.4 0 46.3167V54.65C0 56.45 0.4 58.15 1.5 59.2667C2.6 60.3667 4.1 60.9667 5.81667 60.9667C7.61667 60.9667 9.13333 60.3667 10.1333 59.2667C11.2333 58.1667 11.6333 56.5667 11.6333 54.65V50.05C11.6274 49.9459 11.5833 49.8475 11.5095 49.7738C11.4358 49.7 11.3375 49.656 11.2333 49.65H6.11667C6.01252 49.656 5.91421 49.7 5.84045 49.7738C5.76669 49.8475 5.72263 49.9459 5.71667 50.05V53.4667C5.71667 53.6667 5.91667 53.8667 6.11667 53.8667H7.43333V54.6667C7.4539 55.2724 7.27855 55.8685 6.93333 56.3667C6.63333 56.7667 6.23333 56.8667 5.73333 56.8667C5.51019 56.8668 5.28923 56.8227 5.08325 56.7369C4.87727 56.651 4.69036 56.5252 4.53333 56.3667C4.19184 55.8668 4.01685 55.2718 4.03333 54.6667V46.4333C4.03333 45.7333 4.23333 45.1167 4.53333 44.7333C4.83333 44.3333 5.23333 44.2333 5.73333 44.2333C6.21667 44.2333 6.63333 44.4333 6.93333 44.7333C7.23333 45.1333 7.43333 45.7333 7.43333 46.4333V47.2333C7.43333 47.4333 7.63333 47.5333 7.73333 47.5333H11.2333C11.4333 47.5333 11.5333 47.4333 11.5333 47.2333V46.4333C11.5333 44.6333 11.1333 42.9333 10.0333 41.8167C9.13333 40.6 7.51667 40 5.81667 40ZM50.95 55.95C50.65 56.35 50.25 56.45 49.6333 56.45H47.6333V52.2167H49.6333C50.1333 52.2167 50.5333 52.4167 50.8333 52.7167C51.1625 53.15 51.3375 53.675 51.3333 54.2167C51.3667 55.05 51.2667 55.5333 50.95 55.95ZM49.4333 44.4167C49.9333 44.4167 50.3333 44.5167 50.6333 44.9167C50.9333 45.2167 51.0333 45.7167 51.0333 46.3333C51.0333 46.95 50.9333 47.4333 50.6333 47.8333C50.3458 48.137 49.9511 48.3164 49.5333 48.3333H47.7333V44.4167H49.4333ZM53.45 50.1333C54.05 49.5333 55.15 48.1333 55.15 46.3167C55.15 44.2 54.35 42.9 53.7333 42.2C52.6333 41 51.1333 40.4 49.4167 40.4H43.9333C43.7333 40.4 43.6333 40.6 43.6333 40.7V60.2667C43.6333 60.4667 43.8333 60.5667 43.9333 60.5667H49.75C51.55 60.5667 53.25 59.8667 54.3667 58.45C54.9667 57.65 55.6833 56.3333 55.6833 54.3333C55.5667 51.9333 54.0667 50.5167 53.45 50.1333ZM21.5667 48.2167C21.2667 48.6167 20.7667 48.8167 20.15 48.8167H18.45V44.4167H20.15C20.75 44.4167 21.25 44.6167 21.5667 45.0167C21.9667 45.4167 22.0667 45.9167 22.0667 46.6167C22.0667 47.3167 21.9833 47.8167 21.5667 48.2167ZM23.7833 51.8333C24.1833 51.5333 24.4833 51.3333 24.7833 50.9333C25.4833 50.1333 26.3833 48.7167 26.3833 46.5167C26.3833 44.4 25.5833 43.0167 24.7833 42.2C23.7833 41 22.2833 40.4 20.5667 40.3H14.75C14.55 40.3 14.45 40.5 14.45 40.6V60.15C14.45 60.35 14.65 60.45 14.75 60.45H18.25C18.45 60.45 18.55 60.25 18.55 60.15V52.9167H19.75L21.9667 60.3333C21.9667 60.4333 22.1667 60.5333 22.2667 60.5333H25.9667C26.0667 60.5333 26.1667 60.4333 26.2667 60.4333C26.3667 60.4333 26.3667 60.2333 26.3667 60.1333L23.7833 51.8333ZM95.1833 55.95C94.8833 56.35 94.4833 56.45 93.8667 56.45H91.8667V52.2167H93.8667C94.3667 52.2167 94.7667 52.4167 95.0667 52.7167C95.3958 53.15 95.5708 53.675 95.5667 54.2167C95.6833 55.05 95.5 55.5333 95.1833 55.95ZM93.7667 44.4167C94.2667 44.4167 94.6667 44.5167 94.9667 44.9167C95.2667 45.2167 95.3667 45.7167 95.3667 46.3333C95.3667 46.95 95.2667 47.4333 94.9667 47.8333C94.6792 48.137 94.2845 48.3164 93.8667 48.3333H92.0667V44.4167H93.7667ZM97.7833 50.1333C98.3833 49.5333 99.4833 48.1333 99.4833 46.3167C99.4833 44.2 98.6833 42.9 98.0667 42.2C96.9667 41 95.4667 40.4 93.75 40.4H88.2167C88.0167 40.4 87.9167 40.6 87.9167 40.7V60.2667C87.9167 60.4667 88.1167 60.5667 88.2167 60.5667H94.0667C95.8667 60.5667 97.5667 59.8667 98.6833 58.45C99.2833 57.65 100 56.3333 100 54.3333C99.9353 53.5194 99.7054 52.7272 99.3242 52.005C98.9431 51.2829 98.4188 50.646 97.7833 50.1333ZM84.35 40.3H80.85C80.65 40.3 80.55 40.4 80.55 40.6V54.45C80.5691 55.0245 80.3928 55.5886 80.05 56.05C79.75 56.45 79.35 56.55 78.85 56.55C78.6269 56.5501 78.4059 56.506 78.1999 56.4202C77.9939 56.3344 77.807 56.2085 77.65 56.05C77.3072 55.5886 77.1309 55.0245 77.15 54.45V40.6C77.15 40.4 76.95 40.3 76.85 40.3H73.3333C73.1333 40.3 73.0333 40.4 73.0333 40.6V54.55C73.0333 56.35 73.4333 58.05 74.5333 59.1667C75.6333 60.2667 77.1333 60.8667 78.85 60.8667C80.65 60.8667 82.1667 60.2667 83.1667 59.1667C84.2667 58.0667 84.6667 56.4667 84.6667 54.55V40.6C84.7667 40.5 84.5667 40.3 84.35 40.3Z" fill="white"/>
</svg>
