<svg width="100" height="100" viewBox="0 0 100 100" fill="none" xmlns="http://www.w3.org/2000/svg">
<path d="M33.25 71.9792H23.5V52.4583H33.25M23.5 62.2083H29.8542M70.7083 38.5833C70.7083 37.2885 71.2213 36.0464 72.1349 35.1288C73.0486 34.2113 74.2885 33.693 75.5833 33.6875M70.7083 33.6875V46.625M63.375 70.875C64.5099 71.7574 65.9481 72.1543 67.375 71.9792H68.4792C69.3339 71.9737 70.1521 71.6317 70.7565 71.0273C71.3609 70.4229 71.7029 69.6047 71.7083 68.75C71.7083 67.8916 71.3688 67.0681 70.7638 66.4592C70.1588 65.8503 69.3375 65.5055 68.4792 65.5H66.2083C65.7835 65.5028 65.3623 65.4211 64.9693 65.2598C64.5763 65.0985 64.2192 64.8608 63.9188 64.5604C63.6184 64.26 63.3806 63.9029 63.2193 63.5098C63.058 63.1168 62.9764 62.6957 62.9792 62.2708C62.9792 61.4144 63.3194 60.5931 63.925 59.9875C64.5306 59.3819 65.3519 59.0417 66.2083 59.0417H67.2917C68.7213 58.8729 70.1611 59.2609 71.3125 60.125M65 44.1667C64.5779 44.9022 63.9719 45.5155 63.2415 45.9464C62.5111 46.3774 61.6813 46.6112 60.8333 46.625C60.1793 46.6474 59.5274 46.5378 58.9165 46.3029C58.3057 46.0679 57.7484 45.7124 57.2779 45.2574C56.8074 44.8025 56.4334 44.2575 56.178 43.6549C55.9227 43.0523 55.7913 42.4045 55.7917 41.75V38.5833C55.7917 37.2885 56.3046 36.0464 57.2182 35.1288C58.1319 34.2113 59.3718 33.693 60.6667 33.6875C61.3086 33.6875 61.9442 33.8143 62.5371 34.0606C63.1299 34.3069 63.6682 34.6678 64.1212 35.1227C64.5742 35.5776 64.9328 36.1175 65.1766 36.7114C65.4203 37.3052 65.5444 37.9414 65.5417 38.5833V40.1667H55.7917M55.0417 55.0208V69.6042C55.0417 69.9243 55.1047 70.2412 55.2272 70.537C55.3497 70.8327 55.5292 71.1014 55.7556 71.3277C55.9819 71.5541 56.2506 71.7336 56.5464 71.8561C56.8421 71.9786 57.1591 72.0417 57.4792 72.0417H58.2083M52.4792 59.0417H57.6042M47.3333 67.1042C47.3333 68.3971 46.8197 69.6371 45.9055 70.5513C44.9912 71.4656 43.7513 71.9792 42.4583 71.9792C41.1654 71.9792 39.9254 71.4656 39.0112 70.5513C38.0969 69.6371 37.5833 68.3971 37.5833 67.1042V63.9167C37.5833 62.6237 38.0969 61.3838 39.0112 60.4695C39.9254 59.5553 41.1654 59.0417 42.4583 59.0417C43.7513 59.0417 44.9912 59.5553 45.9055 60.4695C46.8197 61.3838 47.3333 62.6237 47.3333 63.9167M47.3333 71.9792V59.0417M23.5 27.1042V40.1667C23.5938 41.8188 24.3162 43.3725 25.519 44.5089C26.7219 45.6454 28.3139 46.2786 29.9687 46.2786C31.6236 46.2786 33.2156 45.6454 34.4185 44.5089C35.6213 43.3725 36.3437 41.8188 36.4375 40.1667V27.1042M41.4583 38.5833C41.4583 37.2885 41.9713 36.0464 42.8849 35.1288C43.7986 34.2113 45.0385 33.693 46.3333 33.6875C47.6282 33.693 48.8681 34.2113 49.7817 35.1288C50.6954 36.0464 51.2083 37.2885 51.2083 38.5833V41.75C51.2083 43.0429 50.6947 44.2829 49.7805 45.1971C48.8662 46.1114 47.6263 46.625 46.3333 46.625C45.0404 46.625 43.8004 46.1114 42.8862 45.1971C41.9719 44.2829 41.4583 43.0429 41.4583 41.75M41.4583 46.625V27.1042M83.9167 88.0833H15.1667C14.0616 88.0833 13.0018 87.6443 12.2204 86.8629C11.439 86.0815 11 85.0217 11 83.9167V15.1667C11 14.0616 11.439 13.0018 12.2204 12.2204C13.0018 11.439 14.0616 11 15.1667 11H83.9167C85.0217 11 86.0815 11.439 86.8629 12.2204C87.6443 13.0018 88.0833 14.0616 88.0833 15.1667V83.9167C88.0833 85.0217 87.6443 86.0815 86.8629 86.8629C86.0815 87.6443 85.0217 88.0833 83.9167 88.0833Z" stroke="white" stroke-width="2.08333" stroke-linecap="round" stroke-linejoin="round"/>
</svg>
